<?xml version="1.0" encoding="UTF-8"?>
<svg width="221px" height="177px" viewBox="0 0 221 177" version="1.1" xmlns="http://www.w3.org/2000/svg" xmlns:xlink="http://www.w3.org/1999/xlink">
    <title>Landscraper</title>
    <defs>
        <linearGradient x1="57.4403751%" y1="26.4109086%" x2="137.966711%" y2="157.642211%" id="linearGradient-1">
            <stop stop-color="#FFFFFF" offset="0%"></stop>
            <stop stop-color="#439246" offset="100%"></stop>
        </linearGradient>
        <path d="M32.6077877,0.530117788 C33.3895921,0.151985086 34.6603925,0.153554551 35.4389518,0.530117788 L60.0104335,12.4145237 C60.7922379,12.7926564 61.5833473,13.7915027 61.7756354,14.6376327 L67.8442904,41.3416503 C68.03738,42.191307 67.7530768,43.4352785 67.2142972,44.113822 L50.2103041,65.5287815 C49.6692787,66.210153 48.5236491,66.7625137 47.6595134,66.7625137 L20.3872262,66.7625137 C19.5194888,66.7625137 18.3752153,66.207325 17.8364354,65.5287815 L0.832442476,44.113822 C0.291417046,43.4324503 0.010160874,42.1877804 0.202449182,41.3416503 L6.27110399,14.6376327 C6.46419373,13.7879762 7.25774652,12.791087 8.03630598,12.4145237 L32.6077877,0.530117788 Z" id="path-2"></path>
        <linearGradient x1="12.7542673%" y1="-20.3953643%" x2="88.2666158%" y2="85.4813645%" id="linearGradient-4">
            <stop stop-color="#FFFFFF" offset="0%"></stop>
            <stop stop-color="#439246" offset="100%"></stop>
        </linearGradient>
        <linearGradient x1="50%" y1="4.15510848%" x2="148.756007%" y2="177.691592%" id="linearGradient-5">
            <stop stop-color="#FFFFFF" offset="0%"></stop>
            <stop stop-color="#439246" offset="100%"></stop>
        </linearGradient>
        <linearGradient x1="19.1574381%" y1="-9.8463915%" x2="82.2203149%" y2="78.2857774%" id="linearGradient-6">
            <stop stop-color="#FFFFFF" offset="0%"></stop>
            <stop stop-color="#439246" offset="100%"></stop>
        </linearGradient>
        <linearGradient x1="57.4403751%" y1="26.1859215%" x2="137.966711%" y2="158.668876%" id="linearGradient-7">
            <stop stop-color="#FFFFFF" offset="0%"></stop>
            <stop stop-color="#439246" offset="100%"></stop>
        </linearGradient>
    </defs>
    <g id="Page-1" stroke="none" stroke-width="1" fill="none" fill-rule="evenodd">
        <g id="Landscraper" transform="translate(2.000000, 2.000000)">
            <g id="tractor" fill-rule="nonzero">
                <path d="M126.4025,0 L141.484,75.6875 L195.3,75.6875 C207.223065,75.6875 216.806631,85.1191247 216.99711,96.9531646 L217,97.3125 L217,129.75 L204.197,129.75 C205.499,133.21 206.15,136.88625 206.15,140.5625 C206.15,158.477236 191.576869,173 173.6,173 C155.623131,173 141.05,158.477236 141.05,140.5625 C141.05,137.046087 141.645622,133.529674 142.741911,130.202513 L142.8945,129.75 L97.3245,129.75 C94.5034999,154.4025 73.6714999,173 48.825,173 C21.7,173 0,151.375 0,124.34375 C0,106.028754 10.3482094,89.4324981 26.4318527,81.143777 L27.0633346,80.8240856 L31.6078431,0 L126.4025,0 Z M173.539216,126.989362 C164.643099,126.989362 157.431372,134.26791 157.431372,143.246454 C157.431372,152.224998 164.643099,159.503546 173.539216,159.503546 C182.435332,159.503546 189.647059,152.224998 189.647059,143.246454 C189.647059,134.26791 182.435332,126.989362 173.539216,126.989362 Z M50.1470589,99.3829786 C37.5582152,99.3829786 27.3529411,109.682811 27.3529411,122.388298 C27.3529411,135.093785 37.5582152,145.393617 50.1470589,145.393617 C62.7359024,145.393617 72.9411765,135.093785 72.9411765,122.388298 C72.9411765,109.682811 62.7359024,99.3829786 50.1470589,99.3829786 Z" id="Shape" stroke="#009F76" stroke-width="4" fill="url(#linearGradient-1)"></path>
                <path d="M109.502688,19 L89,19 L89.0002994,86.8236253 L89.2241898,87.0963011 C93.2049973,91.9836343 96.3819229,97.9862809 98.4438444,104.79092 L98.7960753,106 L118,106 L118,73.375 L109.502688,19 Z" id="Path" fill="#009F76"></path>
                <path d="M72.9411765,19.0177305 L52.2745099,19.0177305 L52.2745099,73.7903279 C59.3374529,74.6049352 65.9987106,76.8668624 71.9057787,80.3025796 L72.9416503,80.9218401 L72.9411765,19.0177305 Z" id="Shape-path" fill="#009F76"></path>
                <path d="M173,127 C164.163444,127 157,134.163444 157,143 C157,151.836556 164.163444,159 173,159 C181.836556,159 189,151.836556 189,143 C189,134.163444 181.836556,127 173,127 Z" id="Path" fill="#009F76"></path>
            </g>
            <g id="gardener" transform="translate(15.000000, 91.000000)">
                <g id="Rectangle-2">
                    <g id="Mask" fill="#009F76" fill-rule="nonzero">
                        <path d="M32.6077877,0.530117788 C33.3895921,0.151985086 34.6603925,0.153554551 35.4389518,0.530117788 L60.0104335,12.4145237 C60.7922379,12.7926564 61.5833473,13.7915027 61.7756354,14.6376327 L67.8442904,41.3416503 C68.03738,42.191307 67.7530768,43.4352785 67.2142972,44.113822 L50.2103041,65.5287815 C49.6692787,66.210153 48.5236491,66.7625137 47.6595134,66.7625137 L20.3872262,66.7625137 C19.5194888,66.7625137 18.3752153,66.207325 17.8364354,65.5287815 L0.832442476,44.113822 C0.291417046,43.4324503 0.010160874,42.1877804 0.202449182,41.3416503 L6.27110399,14.6376327 C6.46419373,13.7879762 7.25774652,12.791087 8.03630598,12.4145237 L32.6077877,0.530117788 Z" id="path-1"></path>
                    </g>
                    <g id="Clipped">
                        <g id="Path-Clipped">
                            <g>
                                <mask id="mask-3" fill="white">
                                    <use xlink:href="#path-2"></use>
                                </mask>
                                <g id="path-1"></g>
                                <polygon id="Path" fill="#000000" fill-rule="nonzero" opacity="0.289628623" mask="url(#mask-3)" points="-14.0982486 42.7057041 23.9292679 19.5066089 49.5424503 45.8396978 19.1501631 72.7621901"></polygon>
                            </g>
                        </g>
                    </g>
                </g>
                <path d="M43.4795539,30.7630216 C43.141984,31.7008564 42.5078986,32.601967 41.7763109,33.0869582 L35.4601248,37.2741458 C34.3762784,37.9926599 32.6244932,37.9962911 31.5351694,37.2741458 L25.2189832,33.0869582 C24.1351368,32.3684441 23.2565056,30.7205058 23.2565056,29.4052737 L23.2565056,20.5883587 C23.2565056,20.0138299 23.4232223,19.3763129 23.7018422,18.780303 L43.4795539,30.7630216 Z" id="Combined-Shape" fill="url(#linearGradient-4)" fill-rule="nonzero" transform="translate(33.368030, 28.297348) scale(-1, 1) translate(-33.368030, -28.297348) "></path>
                <path d="M42.7827647,19.5416667 C43.0602932,20.1353209 43.2267658,20.7696432 43.2267658,21.3411718 L43.2267658,30.1624633 C43.2267658,31.47794 42.3497913,33.1234717 41.2557014,33.8459753 L34.911879,38.0352414 C33.82329,38.7541121 32.06384,38.7577448 30.9697499,38.0352414 L24.6259275,33.8459753 C24.0939041,33.4946433 23.6111117,32.9212038 23.2565056,32.2730645 L42.7827647,19.5416667 Z" id="Combined-Shape" fill="url(#linearGradient-5)" fill-rule="nonzero" transform="translate(33.241636, 29.058712) scale(-1, 1) translate(-33.241636, -29.058712) "></path>
                <path d="M50.0520446,44.8182077 C49.6833453,45.6178294 49.0878537,46.3441117 48.4172581,46.7338887 L36.2198868,53.8234927 C35.1015912,54.4734912 33.2867063,54.4724628 32.1701802,53.8234927 L19.9728087,46.7338887 C18.8545131,46.0838903 17.9479554,44.5010495 17.9479554,43.2031095 L17.9479554,29.0239013 C17.9479554,28.4212617 18.1431522,27.7580612 18.4637992,27.155303 L50.0520446,44.8182077 Z" id="Combined-Shape" fill="url(#linearGradient-6)" fill-rule="nonzero"></path>
                <path d="M49.8743277,27.4090909 C50.1440375,27.9638669 50.3048327,28.5588754 50.3048327,29.1035529 L50.3048327,43.2380975 C50.3048327,44.5339996 49.3957367,46.1108291 48.2782656,46.7577549 L36.0705712,53.8250271 C34.9513294,54.4729783 33.1349083,54.471953 32.0174372,53.8250271 L19.8097429,46.7577549 C19.2882053,46.4558265 18.8126816,45.9519868 18.4535316,45.3690556 L49.8743277,27.4090909 Z" id="Combined-Shape" fill="url(#linearGradient-7)" fill-rule="nonzero"></path>
            </g>
        </g>
    </g>
</svg>