<svg version="1.1" xmlns="http://www.w3.org/2000/svg" viewBox="0 0 314.6421595982142 474.1728864397319" width="314.6421595982142" height="474.1728864397319">
  <!-- svg-source:excalidraw -->
  
  <defs>
    <style>
      @font-face {
        font-family: "Virgil";
        src: url("https://excalidraw.com/Virgil.woff2");
      }
      @font-face {
        font-family: "Cascadia";
        src: url("https://excalidraw.com/Cascadia.woff2");
      }
    </style>
  </defs>
  <rect x="0" y="0" width="314.6421595982142" height="474.1728864397319" fill="#ffffff"></rect><g stroke-linecap="round" transform="translate(10 10) rotate(0 147.3210797991071 227.08644321986594)"><path d="M0 0 C0 0, 0 0, 0 0 M0 0 C0 0, 0 0, 0 0 M-0.31 5.7 C0.87 4.08, 2.42 3.44, 4.89 -0.18 M-0.62 6.04 C1.57 4.23, 2.69 2.58, 4.67 0.23 M-0.05 10.45 C4.02 8.23, 5.15 5.74, 11.47 0.22 M0.58 11.52 C4.22 7.5, 7.74 4.03, 10.97 0.1 M-0.75 18.26 C5.01 14.87, 5.97 10.01, 16.95 1.89 M-0.97 18.42 C3.53 14.35, 8.61 8.43, 15.78 1.11 M-0.1 25.97 C7.02 15.56, 15.41 9.3, 20.96 -1.47 M-0.73 24.03 C5.91 17.13, 13.09 11.29, 20.82 -0.95 M-1.12 29.4 C9.96 20.61, 17.46 11.97, 24.98 -0.69 M-0.79 30.41 C7.69 20.5, 14.79 12.75, 25.46 -0.18 M0.16 36.43 C11.65 24.21, 20 14.45, 29.93 1.22 M-0.62 37.06 C11.73 22.56, 22.48 9.59, 31.85 -0.11 M-1.77 44.29 C14.25 25.37, 27.7 8.64, 38.73 0.55 M-0.23 41.78 C14.02 26.41, 29.53 9.35, 37.42 0.08 M-0.24 47.31 C8.91 37.22, 23.45 24.27, 43.07 -1.69 M-0.42 48.79 C15.52 30.17, 31.31 11.75, 42.9 0.35 M1.67 55.01 C16.27 33.68, 33.06 17.18, 45.76 -0.28 M0.54 54.17 C17.52 35.57, 34.73 14.97, 46.76 -0.38 M1.51 59.63 C9.24 46.86, 22.7 34.08, 51.53 -0.41 M-0.62 61.68 C19.7 38.42, 38.71 14.38, 53.17 0.47 M-0.44 66.24 C21.37 42.32, 39.87 18.24, 57.32 1.8 M-0.88 68.29 C21.43 42.29, 42.69 19.28, 58.5 1.01 M0.49 72.48 C15.88 57.3, 30.47 39.53, 63.12 0.71 M0.86 72.22 C14.72 56.47, 29.22 39.11, 63.26 -0.4 M0.9 78.23 C23.59 50.7, 50.32 21.02, 70.27 0.61 M0.49 79.94 C24.91 50.96, 48.23 22.27, 68.59 0.65 M1.48 85.79 C29.03 52.06, 58.44 17.79, 76.29 1.15 M1.03 84.74 C22.15 61.35, 42.56 36.88, 74.2 -0.59 M-0.64 93.34 C22.69 67.82, 41.88 44.23, 81.17 0.79 M0.08 91.48 C21.02 67.57, 43.16 41.3, 78.89 -0.24 M0.22 99.1 C23.79 69.07, 50.92 39.07, 86.17 -1.77 M0.16 97.15 C19.71 74.76, 39.11 50.56, 84.46 -1.07 M1.94 103.03 C22.99 77.44, 44.44 53.15, 88.2 -0.15 M-0.58 103.87 C23.15 77.35, 45.17 52.86, 90.2 -0.62 M0.11 110.53 C38.11 64.97, 77.99 24.99, 94.54 1.13 M-0.58 108.95 C28.78 77.7, 57.04 45.11, 94.89 -0.51 M-1.72 114.59 C29.33 81.49, 54.85 51.85, 101.22 -1.88 M0.44 116.38 C38.48 72.04, 73.65 30.07, 101.23 -0.59 M-1.79 123.29 C33.69 83.89, 65.82 49.75, 107.81 0.86 M-0.08 122.69 C24.64 92.5, 49.61 62.96, 105.81 -0.24 M-1.95 129.92 C34.1 91.14, 65.24 50.41, 111.73 0.81 M-0.17 128.38 C37.13 83.68, 76.25 40.67, 111.6 -0.46 M1.91 132.71 C26.37 105.32, 53.73 76.65, 114.42 1.04 M0.36 134.03 C40.31 89.1, 79.14 43.74, 117.26 -0.5 M-0.5 140.5 C36.85 95.98, 77.59 49.46, 122.91 -0.07 M0.71 141.29 C26.5 109.31, 51.99 81.18, 122.88 0.31 M2.24 144.93 C48.47 90.34, 98.22 35.83, 125.43 0.86 M-0.64 145.43 C31.57 111.46, 60.61 77.27, 126.71 -0.49 M-0.35 153.74 C45.86 98.25, 90.38 46.52, 131.67 0.32 M-0.35 152.15 C35.88 110.88, 69.89 71.8, 133.43 0.07 M-0.69 159.61 C50.59 101.47, 100.25 44.83, 136.69 1.46 M-0.21 158.05 C37.55 115.76, 75.45 70.81, 138 1.1 M-1.17 164.75 C42.76 114.33, 86.53 64.22, 142.32 1.57 M0.15 163.6 C44.68 116.14, 86.07 66.3, 143.86 0.04 M-1.22 169.6 C54.22 108.97, 107.29 46.23, 148.81 1.5 M0.36 171.16 C52.78 110.31, 106.9 49.61, 147.42 0.53 M1.33 177.52 C46.11 125.88, 91.48 73.44, 153.04 0.72 M-0.48 177.13 C57.58 111.28, 113.89 45.57, 153.54 -0.66 M1.36 181.66 C54.67 116.58, 111.76 52.07, 158.27 -0.5 M0.86 182.93 C48 128.87, 93.71 74.71, 158.82 -0.03 M-0.7 189.66 C48.32 134.51, 94.48 80.56, 165.3 0.73 M0.06 188.62 C39.62 141.76, 78.76 95.77, 165.19 -0.44 M1.67 193.61 C56.68 127.14, 116.39 61.81, 168.83 -1.05 M-0.09 194.9 C43.25 145.94, 85.37 96.76, 168.65 0.73 M0.93 201.54 C49.44 146.2, 96 89.78, 175.34 -1.44 M0.43 201.21 C58.43 132.59, 118.12 64.89, 175.59 0.35 M-0.63 207.31 C44.11 153.95, 88.91 104.81, 179.62 -0.35 M0.18 206.76 C52.93 146.21, 105.97 84.82, 180.38 -0.44 M1.38 212.38 C66.06 141.56, 128.85 67.87, 185.75 -0.16 M-0.46 213.89 C73.2 130.96, 145.64 47.9, 186.45 0.5 M-0.67 221.24 C51.7 157.66, 103.74 98.59, 190.39 -0.2 M0.24 219.61 C52.2 157.12, 107 96.32, 190.56 0.61 M0.44 225.15 C69.77 146.23, 139.13 67.57, 197.04 -1.7 M-0.47 226.08 C71.67 141.69, 144.99 57.18, 197 0.33 M0.11 232.55 C69.85 151.49, 139.09 71.71, 199.93 0.62 M-0.03 232.11 C66.62 155.91, 132.91 79.47, 200.87 0.5 M-0.18 236.62 C53.94 177.32, 107.74 115.4, 206.59 -0.97 M-0.28 237.5 C80.45 145.14, 162.33 49.87, 206.5 -0.73 M1.25 242.82 C46.78 191.39, 94.23 137.36, 213.24 -1.14 M0.21 244.34 C73.44 159.11, 147.77 73.31, 212.35 0.01 M0.79 251.5 C48.89 196.16, 95.15 139.6, 218.72 -1.18 M-0.19 249.62 C43.94 200.99, 88.27 149.88, 217.71 -0.53 M1.33 256.02 C46.24 200.78, 96.91 146.47, 222.98 -0.31 M0.16 255.62 C77.95 167.77, 154.05 79.88, 222.15 0.03 M0.18 261.04 C65.35 187.9, 130.88 113.99, 229.03 -0.63 M0.4 261.72 C57.78 195.03, 116.49 126.47, 227.67 -0.65 M1.48 267.05 C69.42 191.01, 136.1 114.21, 233.59 1 M0.39 268.45 C64.57 191.89, 129.5 116.22, 232.63 -0.39 M-1.06 273.61 C67.06 198.1, 133.17 122.72, 239.21 0.92 M-0.14 274.81 C65.67 197.64, 131.68 121.79, 238.81 0.73 M0.59 280.28 C78.45 190.96, 158.42 97.68, 243.11 0.84 M0.08 280.7 C53.76 216.56, 107.65 153.17, 243.56 -0.62 M0.08 285.91 C82.46 191.63, 166.63 93.98, 249.91 0.81 M0.03 286.9 C72.58 201.09, 145.69 117.95, 248.98 -0.1 M-0.61 291.83 C68.26 213.88, 137.72 132.26, 254.98 1.06 M0.33 292.43 C55.49 230.5, 110.63 166.3, 254.43 -0.52 M-0.45 298.51 C97.01 185.81, 195.41 72.61, 258.6 -0.66 M-0.16 298.21 C99.14 183.67, 197.38 70.64, 259.77 0.26 M-0.08 305.45 C54.51 241.82, 108.79 178.95, 264.56 0.88 M-0.29 304.52 C103.31 187.97, 205.14 70.88, 265.03 0.18 M-0.8 310.38 C58.48 244, 118.28 174.86, 270.14 -0.09 M0.14 310.99 C91.74 205.6, 182.97 99.75, 269.7 0.09 M-0.07 316.56 C69.4 238.23, 137.08 159.39, 274.79 0.61 M-0.32 316.41 C63.04 243.04, 126.77 169.18, 275.95 0.3 M0.63 323.67 C75.12 235.5, 149.17 151.43, 281 -0.55 M0.06 323.56 C59.08 256.31, 117.5 188.08, 281.17 -0.04 M0.44 327.97 C75.97 242.22, 149.74 157.12, 285.39 0.45 M-0.11 328.58 C102.15 211.12, 203.15 94.28, 285.86 0.04 M0.79 336.09 C61.69 264.54, 123.87 194.38, 292.11 0.85 M0.34 335.7 C107.77 212.46, 213.39 91.12, 291.15 -0.24 M-0.45 342.14 C102.21 223.31, 206.23 102.4, 295.1 1.03 M-0.65 341.63 C97.01 230.36, 192.89 120.33, 295.96 1.71 M-0.11 347.93 C103.08 227, 205.42 108.2, 295.31 6.09 M-0.03 347.24 C118.33 212.55, 236.59 76.49, 296.42 7.05 M0.15 353.85 C109.3 227.3, 218.84 101.83, 295.47 12.42 M-0.52 353.81 C115.42 218.23, 233.48 83.13, 296.01 13.36 M1.21 359.3 C76.86 271.52, 153.89 184.13, 294.65 18.96 M0.09 359.07 C77.36 273.14, 151.86 186.4, 295.24 19.34 M1.02 365.51 C59.82 294.11, 120.51 224.53, 295.51 25.89 M-0.25 366.08 C63.98 292.27, 127.15 219.7, 295.59 25.01 M-0.06 371.92 C91.91 263.61, 185.37 156.68, 296.32 31.73 M-0.05 372.5 C87.32 269.65, 175.14 168.56, 295.48 31.93 M0.48 377.21 C84.79 280.34, 171.86 181.01, 296.29 37.46 M-0.24 377.58 C87.42 277.69, 175.1 178.01, 296.2 37.39 M0.32 385.15 C112.74 254.33, 226.63 121.54, 295.94 43.64 M0 383.85 C66.29 307.02, 135.22 228.19, 295.52 44.15 M0.54 390.4 C87.73 287.9, 177.27 187.65, 294.69 50.58 M0 389.77 C103.29 272.62, 206.7 154.24, 295.55 49.77 M-0.82 395.77 C96.62 284.34, 193.12 174.06, 296.4 55.54 M0.38 396.19 C115.37 265.5, 229.2 134.24, 295.81 55.5 M-0.51 401.93 C74.92 316.47, 149.28 230.14, 296.6 62.48 M-0.19 402.85 C106.92 280.62, 212.92 158.23, 295.44 62.19 M1.02 407.41 C89.6 307.98, 176.81 207.16, 296.52 67.73 M0.14 408.16 C68.78 328.18, 137.5 249.79, 295.77 67.78 M-0.65 415.45 C60.11 346.15, 122.58 275.59, 296.63 73.57 M-0.52 414.21 C90.28 312.53, 179.05 210.4, 295.4 74.69 M0.42 421.49 C66.16 345.07, 134.22 267.8, 295.29 81.65 M-0.64 420.74 C78.76 328.99, 157.69 237.9, 295.6 80.58 M0.99 427.66 C105.92 305.31, 213.47 180.88, 295.2 87.28 M-0.27 426.3 C64.55 351.44, 130.42 274.95, 295.84 86.75 M-0.99 433.24 C105.32 311.18, 212.36 188.16, 295.44 92.06 M0.25 432.82 C95.56 323.48, 191.03 213.04, 295.5 92.6 M-0.05 439.71 C107.26 313.1, 216.37 188.14, 296.86 98.29 M-0.06 438.31 C107.38 314.03, 215.81 189.35, 295.93 98.44 M0.67 444.91 C92.37 334.64, 188.05 226.29, 296.58 104.13 M-0.08 445.21 C80.83 353.25, 160.16 262.34, 296.05 104.69 M-0.34 451.99 C61.63 381.59, 121.36 312.55, 295.26 111.58 M-0.71 451.1 C71.8 365.86, 144.54 281.95, 295.35 110.79 M0.93 456.38 C69.44 378.4, 137.88 302.45, 296.89 115.89 M1.48 455.66 C88.34 355.91, 176.23 254.95, 295.6 116.41 M6.75 455.71 C94.11 353.29, 182.03 254.15, 295.96 123.05 M7.08 455.32 C112.55 331.52, 218.92 209.33, 295.44 123.17 M11.83 455.08 C125.31 324.8, 237.97 195.26, 295.31 129.75 M12.43 456 C82 375.28, 150.8 296.33, 295.77 129.18 M17.5 455.65 C79.91 383.24, 144.59 310.72, 296.12 134.64 M18.03 455.75 C106 355.49, 192.86 254.08, 295.84 135.48 M21.91 455.86 C84.47 383.18, 146.62 312.32, 295.95 142.33 M22.32 455.87 C95.55 371.27, 168.93 287.16, 295.68 141.63 M27.25 454.32 C82.79 393, 136.66 331.17, 295.7 146.52 M27.97 454.85 C96.22 376.52, 163.93 297.36, 295.47 147.46 M33.27 455.9 C115.53 359.53, 200.13 263.72, 295.62 154.33 M33.83 455.99 C130.74 344.94, 228.1 233.87, 295.71 154.08 M39.97 455.38 C135.22 345.37, 232.03 234.28, 296.25 158.86 M38.69 455.62 C100.33 385.05, 160.88 314.63, 295.58 158.95 M42.95 456.47 C134.54 350.19, 224.62 247.44, 295.09 166.15 M44.48 455.09 C113.35 373.89, 183.45 293.73, 295.27 165.26 M50.44 455.24 C133.08 359.78, 216.25 262.18, 294.46 171.27 M49.86 454.84 C123.4 369.64, 196.3 286.65, 295.47 172.57 M55.24 455.22 C108.96 393.48, 161.13 330.78, 297.15 177.88 M54.68 454.96 C139.81 357.21, 225.38 258.3, 296.23 177.58 M60.47 455.92 C116.77 393.29, 173.99 327.6, 295.29 183.32 M59.75 455.69 C142.71 363.3, 225.87 268.34, 295.39 184.14 M63.98 454.5 C131.99 378.18, 197.26 302.88, 297.06 188.88 M65.21 455.33 C133.48 378.35, 201.1 300.55, 295.58 189.31 M71.42 456.7 C126.08 389.87, 183.76 323.13, 294.86 195.62 M69.65 456.09 C136.33 382.27, 202.24 306.64, 295.68 196.11 M75.88 455.62 C144.78 372.15, 215.87 289.83, 295.12 202.43 M75.23 455.45 C123.86 400.11, 172.26 344.53, 295.12 203.03 M81.09 457.05 C146.89 380.79, 212.26 303.18, 296.73 207.89 M80.93 456.01 C144.72 379.8, 211.83 303.2, 296.41 207.94 M86.62 454.37 C168.84 365.84, 245.63 273.74, 296.33 213.55 M86.88 456.03 C128.09 407.23, 170.85 358.86, 296.22 214.38 M90.28 454.67 C165.11 370.31, 240.01 285.36, 296.92 221.13 M91.59 455.13 C165.3 372.7, 239.45 288.32, 295.86 219.98 M97.45 455.93 C156.75 387.02, 217.72 315.25, 296.79 225.38 M96.38 455.98 C160.41 381.58, 225.66 307.74, 296.01 226.47 M101.18 456.43 C165.12 381.13, 232.85 306.74, 295.1 234.13 M101.45 455.91 C158.14 388.37, 215.45 323.17, 296.11 233.58 M108.83 454.11 C154.73 402.92, 201.13 350.06, 295.49 239.83 M107.23 455.78 C149.05 409.06, 190.83 361.79, 296.39 238.15 M112.97 457.05 C180.42 375.42, 247.69 299.53, 296.56 244.57 M113.35 455.69 C177.17 381.14, 240.39 307.73, 295.04 244.38 M118.66 455.72 C178.19 384.95, 237.17 318.39, 295.73 250.34 M118.33 455.48 C179.96 386.59, 240.91 315.15, 295.62 251.07 M122.81 454.32 C181.72 385.01, 244.35 313.73, 294.58 258.51 M123.33 456.05 C162.03 410.13, 202.95 365.68, 296.35 256.45 M129.93 455.51 C193.08 380.9, 259.99 303.01, 297.1 262.15 M128.74 455.4 C178.26 399.23, 227.1 342.18, 295.81 263.7 M133.77 454.64 C171.37 411.58, 210.07 369.06, 295.94 270.37 M133.35 456.17 C171.7 413.29, 210.37 368.52, 296.34 269.75 M139.91 455.7 C177.13 413.7, 215.2 367.5, 295.87 276.3 M140.26 455.34 C184.7 405.07, 228.82 353.95, 295.52 275.12 M143.94 455.84 C186.31 408.29, 226.39 358.76, 297.04 280.45 M144.76 454.98 C195.7 395.19, 248.21 336.45, 296.21 281.13 M151.24 455.24 C207.73 390.85, 264.67 324.41, 295.72 288.46 M150.11 455.33 C191.63 409.18, 231.51 362.89, 296.08 287.45 M154.38 454.42 C208.46 391.74, 267.05 325.07, 297.16 294.99 M155.49 455.5 C199.41 405.04, 243.51 355.25, 296.18 294.15 M160.37 454.58 C206.42 400.46, 253.05 348.5, 295.95 300.78 M159.97 454.86 C197.84 413.03, 234.07 371.52, 295.22 300.35 M164 454.3 C198.83 417.32, 234.08 377.38, 296.44 307.86 M165.85 455.59 C214.85 397.94, 265.75 339.69, 295.29 305.32 M173.23 454 C210.14 411.58, 246.56 369.34, 295.36 310.87 M172.21 455.47 C217.26 402.34, 264.55 348.38, 295.78 312.37 M175.62 455.59 C221.04 403.67, 269.85 350.37, 297.02 319.4 M176.09 455.41 C223.24 400.61, 271.31 345.97, 295.51 318.43 M180.68 456.74 C209.01 425.41, 235.68 392.93, 293.66 325.53 M182.39 455.1 C223.34 409.38, 263.5 362.38, 295.61 324.13 M185.39 454.57 C231.18 405.47, 271.66 358.32, 297.09 329.74 M187.51 455.04 C214.37 423.11, 242.3 390.28, 296.19 330.94 M193.8 455.32 C216.72 428.45, 239.47 401.06, 296.21 336.54 M192.08 455.57 C222.31 420.92, 253.61 387, 296.05 337.18 M197.22 454.52 C236.9 412.52, 273.34 368.77, 295.26 340.7 M197.29 455.39 C220.33 427.44, 245.01 400.46, 296.04 341.59 M202.45 454.46 C235.72 415.81, 272.76 377.54, 296.05 346.66 M202.36 456.34 C231.55 421.23, 262.56 387.45, 295.48 349.08 M208.68 455.57 C241.81 417.59, 274.71 375.59, 296.16 354.71 M207.52 455.19 C238.91 418.73, 269.54 383.46, 295.53 354.25 M211.76 453.94 C247 418.28, 279.47 379.52, 294.52 360.71 M213.45 456.43 C235.14 428.3, 260 401.48, 296.87 361.44 M217.01 456.69 C240.63 432.41, 261.07 407.15, 295.02 365.77 M218.24 456.01 C244.01 426.15, 269.54 397.13, 296.52 367.8 M223.54 455.42 C245.4 431.75, 264.2 410.9, 294.63 372.41 M224.93 456.2 C243.51 434.19, 263.41 411.98, 296.1 371.74 M229.08 453.68 C246.52 435.32, 262.42 416.01, 295.77 378.01 M230.39 455.26 C243.1 438.34, 259.08 421.59, 295.32 379.77 M234.26 456.37 C249.32 436.68, 265.83 418.45, 294.4 387.02 M234.84 456.33 C252.64 435.56, 270.28 415.19, 296.3 385.01 M239.44 457.2 C262.49 428.19, 284.16 403.44, 295.67 392.61 M240.83 455.14 C253.25 441.17, 267.05 425.77, 296.32 390.22 M245.02 456.13 C264.39 431.77, 284.86 411.86, 295.46 396.41 M244.64 454.84 C255.92 441.64, 267.26 429.47, 295.53 397.85 M252.27 454.76 C263.74 439.61, 275.69 429, 294.6 402.63 M251.35 455.71 C264.93 440.69, 278.4 423.58, 296.33 403.55 M255.61 453.86 C272.32 437.46, 286.39 420.24, 297.12 409.56 M256.2 456.06 C266.34 444.64, 276.1 433.85, 295.78 409.96 M263.44 456.7 C275 441.52, 284.95 427.73, 296.46 415.71 M261.66 455.86 C270.51 443.59, 281.67 431.54, 294.94 416.25 M266.45 454.57 C277.67 441.7, 288.44 430.68, 297.03 423.53 M266.82 455.66 C276.22 444.02, 287.79 432.5, 296.61 422.11 M270.45 454.19 C280.57 445.72, 292.56 434.47, 293.79 429.08 M272.4 454.28 C282.11 443.93, 291.63 433.14, 296.1 428.87 M276.64 455.14 C285.24 447.33, 292.94 438.57, 296.46 434.22 M276.21 455.65 C282.62 448.34, 288.75 442.99, 295.52 433.91 M282.46 453.28 C285.68 451.95, 288.35 446.4, 297.79 440.06 M282.12 454.52 C287.17 449.8, 291.56 444.76, 295.25 439.55 M286.64 454.75 C289.78 451.82, 293.44 448.12, 294.47 446.86 M287.61 455.4 C289.99 452.21, 292.89 449.97, 296 445.89 M292.96 456.3 C293.34 455.23, 294.65 454.3, 295.75 452.34 M292.96 456.07 C293.35 455.06, 294.24 454.44, 296.23 452.07" stroke="#82c91e" stroke-width="0.5" fill="none"></path><path d="M-1.09 1.23 C101.16 -1.31, 202.31 -1.8, 294.71 0.2 M0.57 -0.59 C88.46 1.46, 177.94 0.68, 294.84 -0.16 M295.28 -0.04 C293.38 151.9, 294 304.15, 294.93 453.94 M294.82 -0.01 C293.1 107.12, 293.4 213.83, 294.41 454.11 M294.54 452.83 C224.16 453.02, 153.54 453.29, -1.42 454.54 M294.55 454.73 C179.15 455.1, 64.75 454.95, 0.73 454.82 M-0.32 454.07 C-0.2 342.3, -0.94 228.79, -0.14 -0.08 M-0.47 453.85 C-1.11 290.37, -1.02 125.98, 0.05 -0.42" stroke="#000000" stroke-width="1" fill="none"></path></g><g transform="translate(26.05712890625 21.53529575892935) rotate(0 99 17)"><text x="0" y="27" font-family="Cascadia, Segoe UI Emoji" font-size="28px" fill="#000000" text-anchor="start" style="white-space: pre;" direction="ltr">demo cluster</text></g><g stroke-linecap="round" transform="translate(28.947012765066916 82.09058489117706) rotate(0 118.22191510881692 20.372968401227354)"><path d="M0 0 C0 0, 0 0, 0 0 M0 0 C0 0, 0 0, 0 0 M-0.67 5.78 C0.86 5.21, 2.58 2.52, 4.97 1.15 M0.07 6.03 C1.32 4.34, 2.76 2.54, 4.79 0 M1.28 11.36 C3.97 7.19, 9.33 2.8, 11.47 0.06 M0.53 11.69 C2.73 9.72, 5.32 6.58, 10.18 0.37 M1.28 19.31 C3.54 13.03, 11.41 8.34, 14.83 1.33 M-0.48 18.91 C3.84 14.04, 6.57 11.89, 16.04 1.23 M0.06 23.66 C6.06 20, 9.49 11.57, 20.96 -0.69 M-0.15 24 C7.46 17.95, 12.42 9, 21.45 0.08 M1.63 30.48 C11.12 19.88, 19.3 6.19, 26.23 0 M-0.21 29.61 C7.9 20.99, 16.71 10.19, 26.37 -0.46 M1.33 35.99 C11.51 24.11, 21.61 10.78, 33.13 1.51 M0.39 36.1 C10.75 23.68, 22.06 11.24, 32.86 0.02 M0.38 41.34 C10.1 29.04, 23.92 17.71, 38.82 -0.37 M-0.04 42.75 C14.93 26.75, 29.26 9.91, 36.43 0.67 M4.78 42.54 C22.15 26.65, 34.42 8.57, 43.92 -0.86 M6.12 41.05 C19.31 25.8, 33.05 11.87, 43.05 -0.89 M10.32 39.94 C20.17 31.02, 29.46 18.06, 48.88 -0.63 M11.03 42.52 C19.67 31.79, 28.47 20.67, 46.58 0.24 M15.3 40.36 C31.41 24.42, 43.06 9.21, 54.71 1.52 M17.18 42.17 C28.93 26.53, 42.49 12.8, 53.74 0 M22.86 41.03 C33.09 26.71, 46.52 14.47, 59.38 -1.8 M21.93 40.82 C32.35 30.23, 42.77 19.06, 57.59 0.17 M27.8 43.07 C34.72 34.15, 42.97 23.89, 62.55 0.8 M27.48 41.87 C35.31 32.1, 44.49 21.13, 64.52 0.15 M30.92 42.89 C44.02 28.85, 58.67 13.92, 69.94 0.95 M33.33 41.07 C39.58 31.53, 48.01 23.83, 69.67 -0.26 M37.78 41.64 C49.01 27.85, 62.02 17.14, 74.12 -2.03 M38.28 41.33 C45.17 32.16, 53.72 22.73, 73.95 -1.12 M45.06 40.64 C52.73 30.12, 62.16 22.46, 78.83 0.29 M42.85 42.5 C53.98 28.85, 63.94 16.9, 79.45 0.52 M47.37 42.85 C61.06 27.96, 75.36 10.32, 83.78 0.89 M49.27 42.1 C62.07 25.55, 75.76 8.99, 84.47 0.31 M55.52 40.26 C63.73 30.86, 69.74 20.73, 88.98 -1.26 M53.99 41.18 C65.28 29.23, 76.89 14.9, 90.97 -0.56 M58.73 40.1 C70.59 32.18, 77.22 20.87, 95.54 -1.76 M58.91 41.78 C69.01 30.65, 77.85 19.67, 95.49 0.39 M66.18 40.54 C76.48 29.05, 90.82 10.73, 101.98 -1.35 M65.21 41 C76.67 25.92, 91.33 10.41, 100.69 -0.26 M70.63 40.37 C79.85 32.76, 89.36 22.27, 105.06 1.55 M70.04 42.04 C82.27 26.92, 94.16 12.93, 106.29 -0.08 M76.57 43.16 C87.13 26.21, 100.78 13.52, 112.07 0.23 M74.87 40.69 C87.81 27.75, 98.88 14.11, 110.52 0.01 M80.53 42.74 C91.66 32.54, 98 19.74, 117.01 -0.06 M80.95 42.16 C91.81 28.85, 103.56 15.14, 116.45 0.26 M83.89 42.61 C99.6 24.96, 114.13 10.1, 120.16 -0.47 M86.26 40.8 C98.16 27.58, 111.67 12.47, 122.75 -0.87 M89.21 41.38 C98.97 32.61, 106.85 21.95, 125.68 -0.86 M91.01 40.97 C97.87 32.93, 106.33 23.61, 127.43 1.33 M97.01 40.22 C103.4 32.12, 113.07 21.47, 131.78 -1.58 M96.59 40.71 C109.67 26.01, 124.97 10.24, 133.13 -0.66 M102.1 40.31 C110.78 30.81, 117.21 23.85, 137.04 -0.05 M101.04 42.63 C112.26 28.47, 124.47 17.14, 137.64 1.18 M106.41 42.2 C115.74 32.03, 126.03 20.7, 143.17 -1.34 M108 41.62 C114.82 31.57, 124.84 22.41, 143.82 -0.8 M111.28 43.38 C124.54 26.71, 141.23 11.12, 149.38 1.29 M112.23 41.66 C120.35 33.73, 126.24 24.39, 148.08 -0.11 M118.27 41.57 C127.37 30.28, 133.9 22.22, 155.18 -0.19 M118.54 41.57 C130.25 27.13, 141.06 13.7, 154.38 0.6 M121.5 40.29 C131.87 29.64, 142.35 17.43, 158.65 -1.11 M123.24 41.86 C134.3 26.73, 147.22 12.75, 158.66 -0.61 M128.41 40.2 C136.82 29.54, 148.65 20.35, 163.33 1.3 M129.18 40.42 C139.51 27.48, 152.92 13.92, 164.83 -0.25 M132.15 40.6 C147.99 26.41, 158.78 9.89, 168.46 -0.64 M133.13 41.39 C142.76 29.58, 152.67 19.17, 169.22 0.44 M140.31 42.82 C148.12 29.84, 161.1 14.33, 175.82 0.39 M138.82 40.87 C151.09 27.71, 162.98 14.88, 174.57 0.2 M143.29 39.7 C153.43 31.31, 163.92 17.63, 180.05 2.13 M144.38 41.74 C151.07 33.72, 159.92 23.19, 180.5 -0.39 M151.1 42.98 C158.65 32.2, 168.29 19.77, 187.47 -1.81 M149.29 41.43 C159.67 29.91, 170.25 19.69, 185.46 -0.18 M153.64 40.81 C165.8 27.68, 180.19 11.1, 190.35 1.48 M153.89 40.72 C164.79 30.94, 174.53 18.93, 191.2 0.33 M161.56 41.09 C172.2 30.37, 181.45 15.99, 197.77 1.65 M160.33 41.46 C171.55 28.4, 182.44 17.64, 196.76 -0.2 M166.55 41.02 C178.55 26.78, 186.94 14.89, 201.92 0.54 M166 41.45 C174.59 31.11, 182.48 21.42, 200.91 -0.18 M170.15 42.41 C179.39 32.11, 188.3 19.99, 208.89 1.57 M170.59 42.12 C178.47 31.89, 185.79 23.07, 206.15 -0.33 M176.06 41.24 C184.59 32.08, 192.51 22.68, 213 1.27 M175.46 41.41 C182.42 32.6, 191.52 23.78, 211.16 0.15 M182.31 43.77 C189.61 29.76, 203.28 16.09, 215.61 -1.4 M180.01 42.19 C189.32 31.63, 198.13 22.28, 216.76 0.29 M184.85 40.24 C195.89 33.04, 202.26 23.14, 223.46 -1.51 M186.43 41.38 C196.65 29.25, 207.48 16.82, 222.39 -0.78 M191.11 40.61 C202.94 29.5, 212.65 18.82, 227.41 1.2 M191.41 41.97 C199.12 31.5, 208.05 21.38, 228.1 -1.15 M198.24 40.64 C206.23 31.1, 215.22 22.74, 232.84 1.85 M197.51 42.49 C210.1 26.12, 223.55 9.1, 232.97 -0.25 M203.31 41.45 C215.29 29.36, 226.42 17.26, 237.09 1.23 M201.56 40.89 C212.31 28.52, 224.69 17.47, 237.82 1.36 M206.23 42.88 C212.07 33.93, 218.65 28.85, 236.44 8.64 M208.71 41.2 C217.17 29, 228.08 16.45, 238.28 7.08 M211.99 42.94 C220.19 32.25, 228.07 27.22, 237.54 13.91 M212.82 41.43 C222.28 32.01, 231.48 19.72, 237.41 13.72 M217.48 43.26 C222.07 35.3, 229.69 31.63, 235.76 19.46 M218.48 42.27 C222.22 36.59, 226.96 30.67, 238.19 19.84 M221.85 40.53 C225.95 35.94, 228.79 32.33, 239.39 24.69 M223.45 40.91 C228.79 34.94, 234.81 29.43, 236.87 25.54 M229.19 40.43 C230.47 38.42, 232.36 37.94, 238.64 30.36 M228.79 41.67 C231.35 38.89, 234 36.02, 237.02 32.15 M234.39 41.99 C235.59 40.49, 236.01 39.35, 238.17 37.29 M234.2 41.98 C235.18 40.33, 236.35 38.71, 237.78 37.25" stroke="#40c057" stroke-width="0.5" fill="none"></path><path d="M-0.34 -0.08 C83.69 -2.27, 168.85 -1.41, 236.47 -1.63 M-0.5 0.78 C62.79 1.48, 125.5 1.39, 236.74 -0.12 M234.45 -1.03 C236.03 8.19, 237.32 18.56, 235.15 39.72 M235.54 0.57 C236.34 15.71, 236.11 30.68, 235.84 41.45 M236.63 40.01 C171.14 38.51, 103.79 39.37, 1.52 41.43 M235.9 40.3 C151.31 41.62, 66.73 42.97, -0.43 40.84 M0.06 42.59 C-1.36 25.01, -0.16 8.59, 1.23 1.17 M0.33 41.62 C0.92 31.18, 0.51 19.71, 0.86 -0.08" stroke="#000000" stroke-width="1" fill="none"></path></g><g transform="translate(44.72721644810292 93.41675676617706) rotate(0 98.5 19.5)"><text x="0" y="15.5" font-family="Cascadia, Segoe UI Emoji" font-size="16px" fill="#000000" text-anchor="start" style="white-space: pre;" direction="ltr">Landscaper controller</text><text x="0" y="35" font-family="Cascadia, Segoe UI Emoji" font-size="16px" fill="#000000" text-anchor="start" style="white-space: pre;" direction="ltr"></text></g><g stroke-linecap="round" transform="translate(33.112836565289285 141.91170056510782) rotate(0 105.49534388950951 88.85427181112937)"><path d="M0 0 C0 0, 0 0, 0 0 M0 0 C0 0, 0 0, 0 0 M-0.61 6.86 C0.78 4.62, 1.98 4.67, 5.09 -0.37 M-0.38 6.18 C0.48 5.04, 1.7 3.54, 5.38 0.31 M-0.21 11.89 C2.99 9.92, 5.1 7.33, 9.58 0.85 M0.34 12.48 C2.87 9.39, 4.54 6.83, 10.81 -0.28 M-1.6 18.86 C5.67 14.66, 8.12 8.83, 13.67 -1.36 M0.5 17.71 C4.8 13.74, 9.75 8.45, 14.87 0.14 M1.27 25.65 C8.28 13.19, 16.56 4.45, 21.15 -2.07 M1.05 25.05 C6.12 16.09, 12.94 10, 22.15 -0.63 M0.76 31.46 C4.95 22.07, 12.66 15.33, 26.82 -1.3 M-0.96 30.9 C6.98 21.39, 15.59 12.24, 26.96 0.5 M-0.36 37.79 C6.41 28.08, 18.53 18.11, 32.8 -0.83 M-0.5 36.52 C9.68 25.37, 20.9 13.75, 31.78 -1.06 M-1.4 42.13 C16.35 26.46, 30.72 9.12, 38.57 -0.48 M0.23 43.21 C9.34 32.42, 16.67 23.45, 37.68 0.2 M1.86 49.68 C10.2 36.34, 20.42 26.4, 43.76 -0.73 M-0.43 48.32 C12.68 35.44, 25.1 20.08, 42.3 0.56 M-0.72 55.47 C14.06 36.95, 32.42 19.07, 46.47 0.77 M-0.32 54.77 C12.05 39.42, 24.2 25.86, 48.38 0.97 M0.7 59.86 C11.33 46.71, 26.93 34.36, 54.12 -1.43 M-0.96 60.87 C19.73 38.41, 40.08 15.19, 53.65 -0.27 M-1.88 66.69 C12.91 52.77, 29.22 32.77, 57.71 -1.07 M-0.26 67.79 C23.18 42.25, 45.26 14.96, 57.36 0.36 M-0.77 74.96 C16.86 53.31, 33.71 33.36, 62.66 1.23 M-0.75 73.65 C13.89 56.22, 29.26 40.55, 64.2 0.3 M-0.92 80.58 C18.71 60.3, 35.01 41.51, 67.14 1.37 M-0.85 78.53 C23.58 52.24, 49.07 23.26, 68.82 0.75 M0.18 84.45 C27.4 57.53, 50.23 25.59, 72.82 1.26 M-0.53 84.98 C20.09 61.66, 39.81 38.15, 73.76 -0.57 M0.82 90.02 C32.34 56.43, 61.35 19.87, 79.26 0.26 M0.13 90.85 C24.1 62.59, 48.81 35.56, 79.91 0.35 M-0.73 99.39 C32.63 60.03, 61.21 27.06, 86.68 0.54 M-0.75 97.76 C18.62 73.57, 38.4 52.22, 84.54 0.62 M1.3 103.01 C22.44 75.16, 48.15 45.37, 90.26 -1.37 M-0.05 104.18 C30.76 68.08, 62.01 33.07, 89.68 0.2 M1.85 111.43 C30.71 75.57, 63.55 36.05, 94.98 -1.24 M0.02 109.45 C18.96 87.03, 39.39 65.12, 96.17 -1.31 M-0.86 117.38 C25.36 84.83, 51.58 56.08, 101.93 0.36 M-0.69 115.29 C38.91 70.81, 77.16 26.53, 100.1 -0.85 M0.97 123.32 C40.06 78.87, 76.5 34.48, 107.12 -0.54 M0.16 121.61 C39.04 75.77, 79.61 29.8, 106.73 -1.2 M-1.06 127.54 C41.75 79.4, 84.51 30.02, 111.77 0.17 M0.69 128.02 C34.7 89.42, 67.81 50.55, 111.06 0.89 M1.98 135.9 C25.65 102.4, 55.81 69.59, 116.5 0.8 M0.62 133.87 C35.76 91.78, 70.57 51.56, 117.05 0.18 M-0.04 139.51 C39.72 96.51, 74.44 53.01, 122.91 1.61 M-0.05 141.29 C48.24 86.32, 96.1 29.94, 121.4 0.96 M-0.12 146.87 C31.2 110.9, 62.67 73.27, 125.15 -1.51 M-0.7 145.68 C30.57 110.91, 62.05 77.35, 126.33 0.13 M-1.67 153.29 C48.49 96.31, 98.39 37.39, 133.96 -0.81 M-0.55 152.56 C36.83 111.88, 72.57 69.69, 131.92 -0.28 M0.58 157.66 C46.13 106.04, 94.19 49.75, 137.74 0.37 M-0.62 158.18 C30.54 124.4, 59.9 90.18, 137.29 -0.37 M-1.12 166.14 C45.26 113.3, 91.59 58.24, 142.05 -0.11 M-0.5 164.04 C28.59 130.9, 57.52 96.74, 143.96 -0.65 M-1.71 171.56 C34.9 132.2, 69.07 93, 146.65 1.21 M0.64 171.58 C49.09 113.56, 99.92 55.28, 147.65 0.8 M1.33 175.71 C54.6 113.37, 112.01 48.65, 154.19 -1.66 M0.72 175.99 C56.73 109.09, 115.39 43.61, 153.69 0.56 M1.98 179.42 C38.39 139.4, 74.15 98.35, 159.55 1.91 M2.28 179.3 C49.67 124.45, 97.34 69.03, 158.5 0 M6.62 179.61 C59.19 123.53, 108.1 65.5, 164.93 0.44 M7.14 179.82 C41.57 141.57, 75.52 102.22, 165.01 0.62 M14.75 179.56 C47.66 140.02, 81.57 101.39, 169.08 -0.31 M12.62 179.37 C59.3 127.28, 106.45 73.43, 169.47 0.75 M16.92 181.23 C66.81 121.22, 116.41 66.36, 175.52 0.94 M18.75 180.13 C64.07 129.57, 108.1 77.56, 174.91 -0.69 M23.15 180.93 C74.3 122.61, 125.11 66.89, 178.62 -0.08 M23.33 180.5 C66.57 129.67, 109.52 80.49, 179.75 0.91 M28.83 181.49 C64.81 136.57, 103.22 92.64, 185.17 -1.3 M28.98 180.17 C88.29 113.94, 145.34 46.37, 186.18 -0.47 M33 180.81 C97.31 108.18, 159.73 37.92, 190.39 1.19 M34.77 180.54 C79.39 130.97, 123.89 80.07, 190.53 0.29 M41.1 180.73 C83.73 127.53, 128.5 79.71, 196.16 -1.7 M39.93 179.71 C101.72 109.7, 162.87 38.27, 196.56 -0.14 M46.46 178.87 C97.63 117.37, 154.79 53.81, 200.45 0.26 M45.54 179.69 C97.23 118.59, 151.14 56.07, 200.87 -0.18 M49.72 180.86 C88.28 134.78, 128.34 93.4, 205.47 -1.67 M49.86 179.63 C98.57 122.57, 146.95 67.24, 206.21 0.43 M57.07 178.81 C92.52 137.83, 127.14 99.68, 209.78 1.22 M55.03 179.7 C114.92 113.1, 171.79 46.49, 211.18 1.45 M59.54 180.29 C120.42 109.6, 176.61 41.55, 210.54 6.54 M60.73 179.37 C93.82 143.08, 124.59 107.47, 210.96 7.2 M68.16 180.05 C113.14 128.26, 158.39 75.59, 211.41 12.82 M65.86 179.65 C103.81 136.33, 142.03 92.11, 211.18 13.04 M72.77 178.93 C101.63 147.24, 128.69 115.78, 210.79 19.82 M70.63 179.55 C100.93 144.85, 131.72 109.86, 211.36 19.31 M77.55 179.29 C108.06 145.6, 138.43 109.93, 212.97 25.15 M76.48 180.21 C127.23 118.65, 179.32 59.72, 211.69 24.12 M83.71 180.12 C114.26 144.91, 143.68 107.92, 211.36 30.71 M81.39 179.26 C132.84 125.47, 181.14 68.75, 210.33 31.96 M86.09 179.01 C120.38 142.42, 152.86 105.16, 212.63 37.92 M86.81 179.15 C122.75 136.57, 160.42 95.42, 211.4 36.86 M93.36 178.03 C126.18 144.24, 155.42 108.32, 212.81 42.86 M92.94 180.94 C139.13 126.47, 184.9 74.49, 211.15 42.9 M96.09 179.97 C124.36 152.18, 147.08 121.12, 210.44 50.39 M97.26 180.41 C125.48 146.38, 154.32 115.24, 211.17 48.32 M102.38 177.97 C136.32 140.36, 172.95 102.9, 213.01 53.73 M103.21 179.19 C132.64 147.6, 160.05 114.76, 210.88 55.27 M107.47 179.26 C144.08 140.35, 183.62 94.24, 211.17 60.55 M107.95 180.77 C134.39 150.7, 159.51 121.36, 210.78 61.24 M115.89 179.28 C135.36 153.49, 158.11 128.94, 212.28 68.71 M113.65 180.04 C138.19 149.32, 164.08 120.12, 212.26 67.18 M119.77 181.15 C141.53 151.75, 167.32 122.64, 212.04 71.94 M117.99 181.05 C139.76 156.87, 159.31 132.72, 212.34 74.51 M125.66 181.12 C154.06 144.77, 181.53 112.5, 210.6 80 M124.12 179.82 C156.25 142.53, 186.7 106.09, 211.94 79.59 M128.84 179.98 C144.53 162.19, 164.79 141.09, 212.93 84.19 M129.11 180.11 C147.91 157.73, 167.87 134.2, 211.42 86.6 M136.12 180.51 C166.07 147.87, 194.85 111.15, 212.94 93.44 M135.94 180.2 C163.49 145.13, 193.86 113.07, 210.83 92.01 M140.19 178.94 C163.92 150.45, 190.53 120.56, 213.06 96.05 M139.94 180.68 C161.76 157.15, 182.45 133, 212.69 97.6 M146.37 178.32 C167.39 150.85, 194.79 125.41, 209.9 103.4 M146.81 179.18 C164.82 158.54, 183.5 136.62, 211.73 104.53 M150.98 180.05 C169.43 156.33, 191.26 138.04, 212.31 108.08 M151.03 180.27 C171.44 157.7, 190.13 134.42, 212.22 110.87 M156.13 181.23 C171.46 159.23, 188.64 140.4, 211.77 115.4 M155.88 180.09 C168.59 163.16, 181.56 148.55, 212.41 117.34 M160.03 178.19 C174.79 165.86, 187.65 148.31, 212.52 121.48 M161.86 180.26 C178.86 158.19, 198.11 138.73, 211.86 122.89 M167.81 179.81 C180.59 165.63, 191.52 152.72, 213.16 129.03 M166.71 180.57 C183.06 160.88, 199.98 141.74, 211.19 128.68 M173.82 179.08 C182.21 169.19, 191.06 157.95, 210.21 132.99 M171.83 180.83 C182.81 168.8, 193.47 158.05, 210.84 135.19 M176.46 178.43 C191.72 163.34, 203.7 149.87, 210.32 140.72 M178.28 179.6 C185.23 171.21, 193.61 162.06, 211.34 140.65 M184.49 181.27 C191.35 169.13, 204.44 155.65, 210.55 145.47 M183.25 180.01 C191.27 169.47, 199.82 161.77, 210.84 145.9 M187.81 181.34 C194.91 172.53, 201.49 165.68, 210.52 154.52 M188 180.51 C194.57 171.1, 201.07 163.5, 211.38 152.89 M191.82 178.19 C199.53 175.7, 202.99 169.16, 212.03 158.88 M192.37 180.65 C199.27 172.35, 206.1 164.25, 211.64 159.72 M200.14 178.66 C202.37 176.25, 202.84 173.25, 212.57 165.04 M198.72 179.89 C201.89 175.49, 205.06 171.67, 210.75 164.68 M204.74 180.03 C208.07 175.56, 210.05 171.87, 211.82 169.77 M204.2 179.64 C205.04 178.62, 206.73 176.26, 211.59 171.36" stroke="white" stroke-width="0.5" fill="none"></path><path d="M-0.73 -0.66 C80.83 0.33, 161.53 -1.62, 210.37 1.36 M0.16 -0.1 C46.79 -1.92, 93.42 -1.86, 210.41 0.59 M210.3 -1.33 C209.83 52.13, 207.93 104.2, 212.55 178.47 M210.73 0.3 C208.9 52.72, 208.78 106.42, 210.76 177.64 M211.23 177.25 C165.09 177.33, 124.15 177.61, 1.07 177.5 M211.13 177.06 C132.74 177.49, 52.28 176.81, 0.82 177.42 M-1.49 177.97 C-0.35 126.07, 1.18 75.95, -1.05 -1.96 M0.52 178.22 C-0.48 135.56, 0.27 95.1, -0.65 -0.67" stroke="#000000" stroke-width="1" fill="none"></path></g><g transform="translate(41.20799810124697 147.84851207511383) rotate(0 71 12)"><text x="0" y="20" font-family="Cascadia, Segoe UI Emoji" font-size="20px" fill="#000000" text-anchor="start" style="white-space: pre;" direction="ltr">OCI Registry</text></g><g transform="translate(45.10729108537964 193.92112513950997) rotate(0 89 49)"><text x="0" y="15.600000000000001" font-family="Cascadia, Segoe UI Emoji" font-size="16px" fill="#000000" text-anchor="start" style="white-space: pre;" direction="ltr">OCI Artifacts [</text><text x="0" y="35.2" font-family="Cascadia, Segoe UI Emoji" font-size="16px" fill="#000000" text-anchor="start" style="white-space: pre;" direction="ltr">- Hello App</text><text x="0" y="54.800000000000004" font-family="Cascadia, Segoe UI Emoji" font-size="16px" fill="#000000" text-anchor="start" style="white-space: pre;" direction="ltr">- Component Archive</text><text x="0" y="74.4" font-family="Cascadia, Segoe UI Emoji" font-size="16px" fill="#000000" text-anchor="start" style="white-space: pre;" direction="ltr">- ...</text><text x="0" y="94" font-family="Cascadia, Segoe UI Emoji" font-size="16px" fill="#000000" text-anchor="start" style="white-space: pre;" direction="ltr">]</text></g><g stroke-linecap="round" transform="translate(38.317740304130666 341.9693429129393) rotate(0 96.17595127650668 47.35604422433016)"><path d="M0 0 C0 0, 0 0, 0 0 M0 0 C0 0, 0 0, 0 0 M-0.69 5.77 C1.54 3.71, 3.1 2.57, 4.89 -0.43 M-0.3 6.61 C1.78 4.37, 3.69 1.66, 5.21 0.1 M1 12.72 C4.12 6.88, 8.34 3.93, 10.13 -0.18 M0.3 12.58 C4.59 7.33, 8.26 2.4, 9.96 -0.05 M-1.59 18.77 C5.53 14.38, 9.93 7.26, 15.25 2.22 M0.66 18.29 C3.77 12.96, 8.72 7.81, 14.62 0.28 M2.2 23.2 C3.94 18.06, 11.43 13.21, 20.14 -1.15 M0.76 23.45 C7.78 14.79, 16.13 5.87, 20.46 -0.14 M0.84 28.91 C6.65 22.56, 13.39 15.33, 26.66 -0.16 M0.46 29.5 C10.76 19.66, 20.86 8.05, 25.88 0.47 M-0.97 36.79 C11.74 25.4, 23.72 9.77, 29.99 1.67 M-0.45 37.8 C8.95 27.76, 17.48 17.3, 31.52 -0.84 M1.52 43.6 C7.31 32.45, 16.44 25.8, 36.76 -1.35 M0.52 42.79 C7.09 33.68, 15.48 24.43, 36.58 0.13 M-1.32 49.68 C12.46 36.96, 21.41 22.3, 43.92 0.31 M0.33 48.05 C10.51 37.8, 20.77 24.59, 42.79 -0.53 M0.7 53.06 C10.95 38.82, 24.5 28.26, 49 -1.11 M-0.28 53.75 C10.42 43.67, 21.39 31.87, 46.88 0.94 M-0.17 60.99 C17.33 43.62, 32.92 24.42, 52.96 -1.29 M-0.32 60.55 C19.11 41.21, 35.39 19.56, 52.52 0.76 M0.61 68.08 C18.77 46.96, 33.88 27.18, 58.49 -0.34 M0.73 67.02 C17.44 46.5, 35.32 26.04, 58.85 -0.6 M1.44 71.96 C17.03 54.69, 35.85 33.7, 64.8 -1.38 M0.73 73.75 C13.39 58.34, 27.03 41.45, 64.39 0.33 M-1.86 79.04 C26.49 52.79, 49.81 22.16, 69.97 0.9 M-0.41 80.34 C19.2 57.69, 36.38 35.45, 69.52 -0.15 M0.15 84.63 C21.42 59.52, 42.26 33.96, 73.75 1.66 M-0.43 85.93 C29.75 51.42, 58.21 18.61, 74.48 -0.2 M-1.17 90.43 C18.59 68.33, 40.23 46.13, 79.87 1.38 M0.79 92.01 C16.03 70.87, 34.87 52.18, 79.81 -0.56 M1.56 94.41 C26.94 63.06, 57.33 31.39, 86.83 -0.73 M1.49 94.66 C33.8 58.27, 64.8 22.6, 84.31 0.12 M8.11 96.28 C31.07 68.79, 56.56 37.03, 90.25 0.73 M7.48 95.37 C32.46 67.28, 55.15 39.23, 89.56 -0.85 M10.84 94.74 C36.49 67.02, 63.32 39.6, 93.67 -1.24 M12.62 96.57 C43.14 60.72, 75.31 23.99, 95.83 0.55 M16.88 97.04 C46.85 61.95, 77.79 25.94, 98.85 1.42 M18.04 96.65 C48.11 61.02, 77.89 28.19, 100.56 0.82 M21.71 95.27 C51.6 62.55, 81.09 29.87, 104.59 1.26 M21.94 96.48 C52.85 61.43, 83.48 25.71, 106.38 -0.28 M27.38 96.49 C49.99 68.02, 73.12 43.59, 113.05 -1.24 M28.94 94.94 C54.29 65.1, 80.15 34.46, 111.5 0.08 M32.78 98.2 C62.22 60.2, 95 25.42, 115.88 0.52 M32.53 96.72 C49.31 75.86, 66.02 57.78, 117.09 1.31 M40.46 97.75 C68.44 64.63, 94.61 29.11, 123.87 -1.09 M39.03 95.09 C57.36 74.35, 74.79 53.05, 120.99 -0.59 M42.96 95.8 C69.36 67.48, 99.59 34.69, 126.49 1.84 M44.08 95.7 C71.63 65.25, 97.91 35.07, 126.48 0.06 M49.6 97.76 C76.27 67.52, 100.85 34.98, 132.04 0.86 M48.58 95.32 C78.29 63.31, 105.15 31.82, 132.58 -0.9 M52.81 97.21 C76.77 71.97, 98.23 46.42, 136.01 0.67 M55.19 95.66 C76.94 71.29, 97.5 45.17, 137.52 -0.66 M58.95 97.33 C92.49 60.24, 123.32 23.33, 141.88 -1.53 M60.28 96.14 C81.46 72.24, 102.91 45.83, 143.73 0.29 M66.58 94.38 C91.82 65.04, 116.7 33.81, 149.4 1.5 M64.39 95.67 C92.53 64.91, 119.28 33.07, 147.26 1.04 M69.32 95.09 C100.81 59.91, 135.28 21.94, 155.42 -1.59 M70.23 95.41 C90.68 73.06, 110.39 50.64, 154.81 -0.06 M74.14 96.13 C104.14 62.34, 132.53 28.06, 158.22 0.71 M75.11 96.61 C101.81 67, 127.24 38.81, 159.15 -0.57 M80.17 97.53 C113.17 60.32, 145.54 24.26, 166.31 -1.79 M80.96 95.32 C100.91 71.43, 121.29 48.67, 164.13 -0.18 M85.03 94.12 C110.96 69.56, 133.36 43.36, 170.73 0.49 M86.73 96.22 C115.12 61.99, 146.72 26.77, 170.1 0.07 M91.61 96.97 C117.19 66.98, 140.26 40.38, 173.88 0.26 M92.43 95.38 C114.54 70.53, 138.02 44.17, 174.92 -0.44 M98.44 96.85 C123.49 64.83, 152.34 30.54, 181.82 -1.12 M97.54 96.05 C127.14 61.08, 157.48 24.02, 179.41 0.87 M102.43 97.59 C126.45 69.4, 146.92 45.39, 185.1 1.76 M103.01 95.43 C123.54 72.08, 145.42 47.93, 186.33 -0.41 M109.24 95.65 C128.63 74.82, 146.83 51.45, 191.06 -0.21 M107.74 96.47 C136.95 60.85, 169.37 24.96, 189.83 1.06 M112.05 97.41 C139.48 67.22, 163.04 38.1, 194.65 3.06 M112.5 94.63 C143.43 61, 173.07 25.91, 194.46 2.44 M117.92 94.72 C148.21 61.5, 175.47 27.94, 194.08 6.5 M118.46 95.69 C137.25 73.81, 158.91 48.66, 193.93 7.74 M121.9 95.03 C140.42 72.63, 160.97 50.11, 196.24 12.59 M122.46 97.24 C144.42 70.78, 168.07 43.86, 194.73 14.78 M128.65 97.08 C145.62 75.37, 162.97 57.09, 195.73 22.3 M128.77 96.74 C151.79 67.24, 176.36 39.4, 194.28 19.54 M132.03 96.64 C146.03 79.48, 161.06 64.28, 196.35 26.29 M133.85 96.57 C147.1 80.83, 159.86 65.11, 194.6 25.69 M139.26 94.62 C155.53 77.27, 170.08 58.48, 194.77 30.59 M138.64 96.5 C154.99 77.19, 171.5 59.14, 195.11 31.63 M143.2 94.56 C158.13 79.42, 172.25 61.58, 196.6 36.77 M144.06 96.54 C163.25 75.24, 181.36 55.55, 194.9 38.96 M151.21 94.04 C163.27 78.3, 179.07 61.71, 192.74 43.4 M149.96 96.65 C166.51 76.76, 182.2 58.53, 194.2 45.31 M153.45 98.17 C166.17 85.91, 175.13 72.32, 195.56 50.21 M154.59 95.61 C164.09 85.63, 173.13 76.7, 194.73 50.89 M159.65 94.92 C172.24 81.28, 188.28 64.46, 194.47 55.82 M159.56 96.71 C169.66 85.34, 178.57 75.8, 194.39 57.46 M167.49 96.69 C173.12 85.36, 184.56 75.08, 193.48 61.38 M165.34 96.6 C173.53 87.11, 179.87 78.78, 195.08 62.41 M171.36 95.65 C176.7 89.03, 186.12 77.76, 193.44 68.8 M170.18 95.03 C175.79 90.59, 181.65 84.43, 193.94 68.27 M174.7 97.23 C181.9 87.78, 188.33 81.77, 194.27 76.17 M175.63 95.65 C182.93 90.43, 186.86 82.9, 193.89 74.51 M182.74 95.51 C186.02 90.46, 189.96 87.19, 193.22 79.99 M181.49 95.79 C185.97 90.76, 190.91 85.43, 194.85 81.05 M186.96 95.25 C189.23 92.19, 192.54 90.19, 194.35 86.74 M187.04 95.58 C190.25 92.06, 193.41 89.04, 194.07 86.56" stroke="#e64980" stroke-width="0.5" fill="none"></path><path d="M-0.23 0.54 C45.74 0.36, 92.06 -1.67, 193.7 -0.08 M-0.67 0.3 C38.33 0.02, 76.64 1.45, 192.73 -0.03 M192.96 -0.97 C192.61 18.64, 194.29 39.22, 192.21 92.9 M192.09 -0.95 C192.18 30.36, 192.34 59.52, 192.23 95.46 M190.88 96.69 C148.93 93.99, 102.21 96.87, -0.66 94.5 M192.48 94.56 C134.01 93.89, 76.41 92.75, -0.98 94.03 M1.03 94.94 C-2.59 64.88, -1 30.29, -1.34 -0.65 M0.76 93.83 C0.02 59.1, -0.07 22.51, 0.98 -0.66" stroke="#000000" stroke-width="1" fill="none"></path></g><g transform="translate(48.31455775669781 347.6118512834737) rotate(0 60.5 16)"><text x="0" y="26" font-family="Helvetica, Segoe UI Emoji" font-size="28px" fill="#000000" text-anchor="start" style="white-space: pre;" direction="ltr">Hello App</text></g></svg>