<svg version="1.1" xmlns="http://www.w3.org/2000/svg" viewBox="0 0 556.6776021349638 843.3612496512251" width="556.6776021349638" height="843.3612496512251">
  <!-- svg-source:excalidraw -->
  
  <defs>
    <style>
      @font-face {
        font-family: "Virgil";
        src: url("https://excalidraw.com/Virgil.woff2");
      }
      @font-face {
        font-family: "Cascadia";
        src: url("https://excalidraw.com/Cascadia.woff2");
      }
    </style>
  </defs>
  <rect x="0" y="0" width="556.6776021349638" height="843.3612496512251" fill="#ffffff"></rect><g stroke-linecap="round" transform="translate(10 10) rotate(0 180.16305106026783 140.41802542550204)"><path d="M0 0 C0 0, 0 0, 0 0 M0 0 C0 0, 0 0, 0 0 M-0.08 6.95 C1.72 4.19, 4.14 1.67, 4.83 0.12 M-0.64 6.79 C1.73 4.65, 2.6 2.78, 4.6 0.37 M0.22 11.37 C2.26 8.73, 8.35 4.14, 9.04 0.65 M-0.51 11.68 C2.31 8.8, 5.61 4.83, 11.29 0.65 M-1.75 16.53 C3.37 15.83, 9.42 9.27, 13.73 -1.54 M0.4 17.57 C3.28 14.97, 6.63 10.89, 15.97 0.36 M-1.29 24.39 C9.16 17.09, 14.86 7.25, 21.71 -0.88 M0.21 24.06 C7.86 16.56, 14.68 8.44, 21.71 -0.02 M0.63 30.27 C7.17 21.66, 14.08 13.56, 25.03 0.99 M0.05 30.43 C10.14 18.12, 19.58 6.6, 25.35 -0.67 M-0.39 38.6 C9.82 25.41, 17.96 18.45, 31.45 1.42 M-0.44 36.18 C8.51 27.31, 15.37 18.58, 31.07 0.47 M1.52 42.51 C14.24 26.7, 26.77 13.82, 36.4 -1.6 M0.51 43 C13.75 25.9, 27.78 9.83, 35.98 0.7 M-1.98 49.5 C16.75 30.08, 28.24 13.22, 43.81 -2.05 M-0.45 49.78 C10.66 34.94, 23.37 21.87, 43.17 0.25 M-1.23 53.6 C10.98 40.42, 24.2 24.43, 46.4 -0.41 M0.5 55.15 C10.7 42.11, 21.93 30.24, 47.09 1.19 M-0.28 60.86 C8.53 48.68, 22.9 34.62, 54.46 -0.23 M-0.17 60.28 C19.33 39.24, 38.57 16.34, 52.59 -0.91 M-0.76 65.48 C15.22 48, 30.1 32.81, 56.23 1.29 M-1.01 67.35 C20.03 42.37, 41.31 16.97, 58.34 -0.12 M1.79 71.53 C22.03 47.95, 45.12 24.91, 62.66 0.78 M1.13 72.67 C22.33 48.14, 44.23 20.77, 63.83 -0.42 M-0.59 80.66 C22.57 53.72, 43.96 33.5, 67.76 2.08 M0.86 78.63 C19.08 58.76, 35.68 37.04, 68.81 1.14 M1.97 86.22 C20.48 61.96, 38.47 39.76, 73.37 -0.27 M-0.42 85.28 C25.73 56.54, 51.39 27.77, 74.29 0.16 M-0.57 92.78 C18.39 72.84, 34.71 53.35, 77.52 0.38 M-0.08 92.1 C21.82 66.62, 41.45 41.55, 79.99 -0.3 M0.01 98.23 C35.58 60.82, 69.08 20.37, 83.19 -1.78 M-0.92 97.52 C26.22 66.56, 54.23 34.85, 85.31 0.06 M-0.22 101.55 C27.99 69.13, 60.23 33.69, 90.68 0.45 M0.56 102.95 C26 75.44, 49.84 44.24, 90.8 -0.41 M-1.73 108.44 C27.79 75.61, 58.02 43.99, 94.38 -1.32 M-1.07 109.85 C33.3 69.11, 67.5 30.15, 95.15 0.39 M-1.4 115.54 C29.78 82.25, 61.46 45.69, 99.09 -1.6 M0.12 116.2 C33.37 78.45, 65.57 40.36, 100.6 -0.82 M-0.19 123.85 C30.27 87.33, 62.99 49.22, 104.85 -1.61 M0.89 121.35 C24.94 94.64, 51.23 66.37, 105.98 -0.96 M1.02 126.91 C26.17 98.51, 48.88 72.47, 111.23 0.19 M-0.83 128.47 C40.17 79.22, 82.84 32.73, 112.14 0.18 M1.01 132.51 C29.68 103.92, 54.24 72.02, 117.51 0.24 M0.78 133.64 C41.63 85.34, 82.78 37.46, 116.26 0.51 M-0.2 138.39 C37.62 95.34, 74.84 49.31, 122.26 -0.39 M-0.81 139.9 C37.15 98.47, 73.28 54.74, 122.62 0.61 M0.87 146.37 C38.67 103.89, 75.42 62.56, 124.92 -0.33 M0.85 146.7 C36.65 102.94, 74.63 62.46, 126.32 -0.15 M1.25 153.69 C33.8 110.98, 72.19 70.21, 132.03 0.26 M-0.34 151.83 C48.74 96.92, 96.61 42.39, 132.63 -0.16 M-1.42 159.8 C33.04 124.41, 63.41 87.31, 139.08 -0.61 M0.07 158.6 C54.85 96.97, 110.37 32.48, 137.46 0.24 M-1.25 165.1 C41.92 116.88, 87.01 66.33, 142.89 1.51 M-0.46 164.41 C41.63 119.31, 83.51 70.9, 143.22 -0.42 M1.13 169.53 C44.61 117.61, 91.42 64.8, 149.01 -0.23 M-0.04 171.29 C30.91 135.34, 61.34 99.72, 147.6 0.77 M-0.24 175.43 C42.51 126.09, 86.97 78.85, 153.95 1.06 M-0.28 176.88 C60.03 106.76, 121.46 37.9, 153 0.57 M-0.06 182.73 C60.16 114.75, 115.73 47.36, 160.39 -1.28 M-0.57 182.81 C38.12 136.64, 77.83 91.19, 159.21 0.68 M-1.53 188.51 C64.88 116.24, 131.02 42.19, 163.4 0.02 M-0.6 189.2 C47.04 136.08, 93.25 83.59, 164.38 0.55 M-0.1 195.3 C59.43 128.57, 117.51 59.65, 168.15 -0.13 M0.05 194.28 C37.31 153.49, 72.58 112.24, 169.5 -0.06 M0.87 201.42 C54.67 140.62, 107.5 80.55, 176.44 0.84 M-0.31 201.36 C60.6 132.66, 119.42 64.5, 174.29 0.12 M-0.42 208.19 C68.14 126.46, 137.99 48.19, 181.58 0.82 M-0.32 206.18 C38.59 162.42, 77.15 119.41, 179.86 -0.06 M-0.57 214.35 C74.9 126.18, 147.88 40.73, 184.42 -0.59 M0.48 213.81 C40.77 163.56, 83.42 115.21, 184.95 0.08 M-0.9 219.85 C53.41 157.86, 106.79 96.72, 190.48 1.61 M-0.9 219.94 C55.14 155.08, 109.2 93.02, 189.95 -0.5 M-0.29 225.92 C61.17 155.65, 119.71 87.9, 195.01 -0.57 M0.68 225.38 C78.35 136.92, 154.67 47.54, 196.39 -0.82 M0.86 231.03 C54.08 165.98, 110.53 102.46, 201.71 0 M0.43 231.21 C63.69 157.81, 127.43 84.78, 201.6 0.38 M-0.8 238.41 C82.32 143.06, 163.97 48.45, 208.23 -1.71 M0.04 237.79 C78.21 147.11, 156.79 57.11, 207.49 -0.62 M-1.33 244.31 C55.72 182.02, 111.21 118.07, 212.56 -1.18 M-0.16 244.14 C66.57 166.43, 133.75 90.05, 212.13 0.48 M0.29 250.99 C66.17 178.65, 128.4 102.97, 216.32 0.48 M0.35 249.76 C62.13 179.11, 124.51 107.97, 216.93 -0.82 M-1.05 257.13 C75.28 167.38, 151.85 79.69, 221.82 1.09 M-0.41 255.81 C72.79 172.31, 144.89 89.25, 222.54 0.57 M0.12 261.38 C80.23 170.81, 160.31 78.14, 227.53 -0.76 M0.37 261.85 C72.93 177.66, 145.84 94.2, 227.78 0.14 M1.14 267.2 C73.99 183.1, 145.81 101.43, 233.4 0.9 M0.57 267.81 C74.82 183.34, 148.95 98.9, 233.65 0.55 M-0.7 273.97 C85.64 175.63, 171.59 75.99, 238.56 0.78 M-0.26 274.57 C63.37 202.76, 125.29 130.88, 237.85 0.15 M-0.41 281.87 C84.04 183.08, 169.01 85.83, 244.23 1.13 M0.07 280.58 C72.1 195.87, 145.85 111.33, 244.24 0.23 M2.52 284.52 C70.67 204.3, 138.18 123.88, 247.66 0.9 M3.13 283.4 C94.01 178.67, 184.59 74.97, 248.62 0.27 M8.58 283.53 C89.25 187.9, 169.34 95.52, 253.83 -1.18 M8.81 282.75 C62.99 219.46, 118.11 155.34, 254.42 -0.04 M14.33 282.9 C83.01 204.89, 150.77 123.87, 258.93 1.5 M13.97 283.83 C82.3 202.29, 152.12 121.36, 259.23 0.78 M17.48 283.65 C96.31 191.41, 178.37 100.01, 265.11 -1.21 M18.16 284.12 C83.62 210.16, 147.79 137.33, 264.8 -0.1 M24.84 284.3 C97.13 199.71, 170.59 114.88, 268.9 1.11 M24.45 283.87 C108.65 184.34, 193.59 86.13, 269.75 0.25 M29.41 282.83 C100.19 201.83, 172.25 119.18, 275.88 0.26 M29.35 283.96 C106.43 196.25, 184.38 107.69, 275.93 -0.45 M34.21 284.4 C109.81 198.43, 180.79 115.15, 281.83 -0.6 M34.56 282.96 C98.57 208.93, 162.59 134.26, 281.11 0.45 M40.6 282.77 C136.78 175.17, 231.76 64.35, 287.4 0.6 M39.67 283.57 C118.41 191.02, 197.71 99.78, 286.52 -0.5 M46.07 284.26 C137.75 173.6, 233.41 63.72, 291.43 0.81 M44.86 282.88 C99.76 220.19, 153.98 157.42, 290.82 -0.26 M49.55 284.33 C110.11 212.37, 172.48 141.61, 295.87 -1.14 M49.71 283.68 C141.33 179.57, 231.37 76.05, 296.41 -0.34 M56.52 284.25 C134.19 193.26, 213.77 101.84, 301.53 1.16 M55.86 283.48 C108.91 223.79, 159.72 163.92, 302.15 -0.29 M60.01 284.65 C140.47 192.55, 218.62 101.3, 308.18 -0.5 M60.96 283.41 C148.59 186.78, 233.6 88.31, 307.26 -0.21 M67.54 282.81 C163.78 169.68, 261.16 57.33, 312.71 1.06 M66.19 283.3 C135.17 204, 203.65 125.43, 312.54 -0.31 M72.48 283.18 C152.39 189.79, 233.13 97.49, 318.91 -1.05 M71.48 283.3 C145.68 198.5, 221.37 112.57, 318.22 0.19 M76.05 282.54 C163.33 183.5, 249.16 82.39, 323.53 -0.22 M76.88 282.58 C145.79 204.82, 214.63 126.02, 322.72 -0.14 M83.02 282.94 C179.67 173.94, 274.67 64.46, 328.48 -0.96 M82.66 283.44 C159.68 196.24, 235.64 109.65, 329 -0.17 M87.25 284.12 C151.51 207.79, 216.78 132.72, 334.15 -1.04 M88.29 282.68 C169.67 190.46, 250.57 98.11, 333.66 0.58 M91.72 284.39 C170.76 191.62, 249.69 101.23, 339.52 -1.53 M92.49 282.97 C183.2 180.44, 272.67 75.65, 339.29 -0.61 M98.86 282.68 C162.29 209.3, 225.68 136.65, 345.14 -1.1 M98.31 283.04 C180.07 188.44, 263.09 93.76, 344.8 0.56 M103.91 284.29 C184.18 189.03, 265.82 95.95, 350.18 -0.39 M103.45 283 C180.75 193.91, 258.25 106.14, 349.87 0.21 M109.57 283.56 C207.23 170.7, 305.15 60.25, 356.25 -0.17 M109.02 282.99 C183.32 197.76, 256.31 113.94, 354.6 -0.02 M114.43 284.15 C190.73 196.79, 267.05 108.4, 360.34 -0.54 M114.67 283.64 C192.33 193.25, 270.63 102.86, 359.81 0.65 M120.35 284.16 C210.35 175.43, 301.38 69.69, 359.93 6.71 M120.06 283.57 C211.52 178.16, 304.61 70.69, 360.78 5.81 M125.8 284.2 C207.98 186.87, 291.41 90.88, 360.9 12.29 M124.9 283.39 C215.83 178.37, 306.35 74.36, 359.91 12.07 M130.69 282.22 C189.61 212.42, 251.78 140.81, 360.4 18.32 M130.37 283.3 C189.99 213.94, 247.84 146.85, 360.47 18 M134.68 284.53 C188.02 222.2, 242.63 157.89, 359.11 24.33 M135.58 283.36 C192.09 219.72, 248.25 154.87, 360.16 23.88 M139.07 283.12 C215.53 197.28, 291.16 110.76, 359.49 31.83 M140.67 283.07 C214.65 197.48, 290.41 111.33, 359.95 30.81 M145.85 283.82 C220.31 194.46, 293.74 108.44, 360.64 36.91 M146.63 283 C208.3 212.41, 268.11 144.08, 360.64 36.32 M149.84 282.94 C201.52 226.03, 252.16 167.15, 359.97 42.88 M150.36 284.23 C230.46 191.91, 309.62 101.48, 360 42.39 M155.38 283.27 C227.49 200.92, 295.63 121.44, 360.36 47.87 M156.82 283.36 C233.27 193.57, 311.64 104.13, 359.93 48.82 M162.66 284.61 C205.94 230.23, 252.17 174.53, 360.47 56.09 M162.32 284.18 C214.01 224.6, 265.23 164.67, 360.39 55.54 M168.07 282.68 C219.32 222.97, 275.76 159.67, 358.86 62.05 M167.26 283.64 C220.2 222.2, 273.85 159.57, 359.41 61.33 M173.1 282.19 C236.25 208.51, 299.68 134.77, 359.1 66.74 M172.25 283.43 C243.7 201.91, 315.65 119.31, 360.38 66.82 M179.22 281.7 C234.66 217.37, 292.98 150.81, 361.7 72.5 M178.04 283.17 C221.42 231.65, 267.06 180.7, 359.58 73.63 M182.03 283.62 C221.13 237.97, 259.39 194.09, 360.49 80.23 M182.97 283.23 C235.41 221.42, 289.65 159.14, 360.27 79.59 M187.07 284.59 C252.73 205.81, 317.48 131.77, 361.65 84.01 M188.79 283.86 C254.88 207.45, 320.01 131.82, 359.61 84.59 M195.08 282.48 C241.88 232.73, 286.14 176.8, 361.73 90.42 M193.62 283.25 C241.15 226.92, 290.58 170.16, 360.07 92.23 M198.48 282.89 C252 223.43, 303.72 160.88, 360.8 96.92 M199.41 283.19 C252.07 225.04, 302.05 165.62, 360.86 97.7 M204.97 283.87 C258.52 220.88, 312.06 157.53, 358.72 102.87 M204.81 283.8 C264.99 216.29, 323.84 149.21, 359.7 103.3 M208.17 282.14 C266.11 220.33, 320.27 155.43, 359.55 108.91 M209.33 282.85 C257.24 228.89, 305.33 172.78, 360.56 109.99 M215.2 283.94 C248.94 243.87, 284.35 205.24, 360.82 115.89 M214.57 283.37 C255.38 236, 296.17 188.74, 360.75 115.65 M219.5 281.49 C252.32 246.33, 284.03 210.5, 360.94 120.63 M220.01 283.27 C272.57 221.15, 326.33 159.19, 360.12 123.07 M225.92 284.41 C271.02 229.39, 318.22 175.08, 362.12 128.3 M225.96 282.74 C265.35 234.7, 305.07 188.52, 359.88 127.51 M229.47 281.52 C261.75 252.26, 290.7 216.01, 361.13 134.89 M230.75 282.48 C274.57 231.1, 318.73 181.6, 360.41 134.43 M235.03 284.43 C269.86 244.88, 300.31 210.63, 362.15 138.55 M235.93 282.61 C263.1 252.15, 291.81 219.1, 361.11 140.9 M241.53 283.31 C284.51 235.2, 323.14 185.93, 360.48 144.67 M241.24 282.48 C286.35 233.58, 327.34 184.84, 360.12 146.31 M247.82 281.5 C291.56 231.82, 335.97 180.24, 359.87 151.57 M246.65 282.87 C269.98 253.23, 294.62 224.41, 360.04 152.22 M250.88 281.85 C272.33 258.72, 296.89 229.01, 362.29 158.25 M251.77 283.48 C277.64 254.35, 301.98 227.22, 359.56 158.38 M255.42 282.36 C288.57 250, 318.61 216.35, 359.55 166.08 M257.56 282.92 C292.58 244.36, 326.19 203.34, 360.26 165.75 M261.47 281.93 C290.44 253.2, 319.9 218.29, 361.42 170.97 M263.1 283.78 C290.13 250.95, 317.11 219.15, 360.91 171.01 M268.56 284.48 C299.6 244.66, 334.95 207.36, 359.97 176.84 M267.91 283.09 C288.21 261.26, 307.44 238.84, 360.92 177.39 M271.97 284.45 C298.22 254.83, 318.34 230.18, 361.72 183.77 M273.43 283.21 C296.79 254.91, 321.79 225.2, 360.67 183.16 M279.62 282.17 C306.09 252.72, 331.01 219.35, 359.22 189.71 M277.92 283.51 C307.75 249.82, 335.32 218.33, 360.25 188.66 M284.33 285.38 C307.72 256.52, 333.81 227.23, 360.66 194.17 M284.04 283.22 C308.04 256.01, 333.12 226.19, 361.2 194.37 M288.65 284.59 C318 250.47, 346.89 217.84, 360.03 200.4 M289.7 283.17 C308.7 263.43, 325.46 240.86, 359.87 200.38 M293.17 282.57 C310.66 268.61, 323.72 250.58, 359.41 206.81 M293.63 282.58 C316.14 258.38, 338.84 232.83, 359.82 208.24 M301.34 281.74 C315.6 266.05, 332.3 246.25, 359.15 213.2 M300.28 282.85 C320.15 261.05, 338.31 240.59, 359.19 214.45 M303.77 281.67 C327.9 259.41, 350.26 232.34, 359.45 220.41 M305.33 284.36 C324.67 260.51, 347.16 235.45, 360.42 218.47 M311.04 282.46 C325.81 263.7, 343.17 245.87, 359.96 224.01 M310.63 282.2 C324.15 266.38, 339.2 249.51, 361.02 225.84 M314.04 282.21 C330.69 267.29, 344.21 250.26, 359.91 230.51 M315.68 282.99 C329.78 266.66, 345.23 249.3, 359.84 230.59 M320.76 284.44 C330.02 271.12, 338.77 262.82, 358.49 238.8 M320.62 282.66 C330.84 272.42, 338.63 262.73, 360.59 238.12 M324.59 283.54 C337.09 270.15, 348.08 256.57, 358.93 244.29 M325.66 283.22 C334.33 273.08, 342.37 264.83, 360.15 243.69 M333.17 284.2 C335.96 274.96, 345.07 270.1, 360.13 248.65 M332.07 282.52 C341.13 271.67, 351.83 258.38, 361.25 249.43 M336.65 282.87 C345.91 272.09, 352.55 261.82, 362.25 255.49 M337.65 283.11 C344.98 273.09, 353.13 263.34, 360.32 256.43 M340.58 283.13 C349.2 277.78, 353.49 270.06, 360.89 260.49 M341.7 283.91 C345.1 277.79, 348.85 273.52, 360.74 262.22 M346.13 285.24 C350.9 278.17, 355.01 277.64, 361.34 266.94 M346.47 283.07 C351.41 278.1, 355.33 275.06, 361.3 268.59 M351.85 282.12 C354.83 280.9, 355.82 279.84, 360.51 275.3 M352.51 283.39 C355.21 281.34, 356.82 279.34, 359.83 274.88 M357.85 282.96 C359.17 281.8, 359.81 281.03, 360.83 280.56 M358.01 283.22 C358.63 282.81, 358.91 281.92, 360.36 280.43" stroke="#82c91e" stroke-width="0.5" fill="none"></path><path d="M1.06 -0.44 C74.45 0.2, 149.63 -0.42, 361.43 -1.03 M-0.47 -0.57 C127.92 -1.02, 255.67 -0.23, 360.91 0.24 M359.58 -0.6 C359.62 71.86, 360.48 141.99, 360.93 279.7 M360.8 0.42 C360.08 74.69, 359.45 147.9, 360.77 280.86 M360.87 279.71 C267.91 278.42, 177.06 279.64, -0.32 280.56 M360.75 281.23 C234.99 283.13, 111.22 283.17, 0.57 280.77 M-1.31 281.63 C0.66 175.14, -1.24 71.64, 0.02 1.01 M-0.21 281.02 C0.65 197.12, 0.61 112.29, -0.18 -0.04" stroke="#000000" stroke-width="1" fill="none"></path></g><g transform="translate(33.01260811941961 24.973536900110048) rotate(0 148 17)"><text x="0" y="27" font-family="Cascadia, Segoe UI Emoji" font-size="28px" fill="#000000" text-anchor="start" style="white-space: pre;" direction="ltr">landscaper cluster</text></g><g stroke-linecap="round" transform="translate(28.878130231584578 82.47659737723188) rotate(0 118.22191510881692 20.372968401227354)"><path d="M0 0 C0 0, 0 0, 0 0 M0 0 C0 0, 0 0, 0 0 M-0.52 7.09 C0.78 4.41, 3.07 3.01, 5.51 0.67 M-0.56 6.21 C0.81 4.84, 2.34 2.92, 4.76 0.23 M0.5 12.99 C1.57 9.49, 4.96 7.27, 9.97 1.52 M0.02 12 C1.44 9.59, 5 6.47, 11.15 -0.06 M-0.48 17.07 C5.32 13.01, 11.11 4.82, 14.5 -1.15 M-0.38 17.5 C4 12.88, 7.78 9.5, 14.66 0.88 M-1.24 24.08 C6 15.06, 13.67 4.4, 21.67 -0.68 M1.09 23.35 C7.48 15.67, 15.37 8.37, 20.7 0.42 M1.98 29.82 C9.03 21.54, 17.14 7.87, 26.34 -0.13 M-0.23 31.11 C8.8 20.5, 17.03 13.23, 25.74 1.25 M1.7 35.34 C10.17 27.01, 15.37 15.79, 31.97 1.88 M0.59 37.47 C8.52 26.85, 16.2 17.26, 31.37 -0.12 M-0.61 42.24 C13.16 27.5, 27.07 12.97, 36.63 1.05 M0.5 42.43 C9.18 33.37, 16.54 24.54, 35.94 0.39 M6.24 42.69 C17.63 30.07, 24.42 17.28, 43.7 -0.98 M6.56 41.57 C21.71 25.81, 35.89 8.56, 41.59 -0.89 M10.07 41.09 C21.19 29.47, 34.41 15.26, 48.04 0.9 M11.24 40.77 C22.43 28.06, 35.54 13.8, 47.83 0.4 M17.9 40.28 C28.75 31.63, 35.73 16.05, 54.7 -1.17 M16.26 40.62 C27.36 28.33, 38.85 16.69, 52.5 -0.68 M20.15 41.64 C35.03 25.59, 47.86 11.58, 57.09 1.58 M21.21 41.71 C32.49 29.98, 43.97 16.71, 57.35 -0.64 M27.37 42.67 C40.4 29.09, 51.35 14.39, 63.67 -1.94 M27.6 42.27 C37.69 29.71, 49.02 16.44, 63.05 -0.84 M34.43 40.52 C40.04 33.13, 51.43 23.95, 68.13 -1.08 M33.32 40.96 C41.56 31.69, 48.52 23.73, 68.74 0.24 M37.15 41.57 C51.17 24.25, 66.41 11.91, 76.12 0.09 M38.75 40.54 C47.73 32.15, 54.87 22.11, 75.03 -0.31 M44.57 41 C56.58 26.65, 67.98 12.43, 79.38 0.38 M43.27 40.65 C54.4 28.28, 65.09 14.37, 79.57 -0.07 M47.56 40.32 C60.56 29.62, 69.68 14.78, 86.44 0.99 M49.25 41.42 C59.95 29.09, 70.37 17.58, 84.05 -0.61 M55.07 43 C63.71 27.65, 76.8 19.03, 88.86 -0.89 M54.63 42.32 C62.84 30.27, 74.02 19.3, 89.74 0.26 M58.11 40.7 C72.08 26.46, 85.04 12.76, 95.85 -0.54 M58.26 42.52 C67.94 33.27, 75.51 23.34, 96.54 -0.83 M65.27 41.12 C79.54 26.63, 95.24 7.15, 100.49 -0.11 M63.76 41.94 C74.89 29.92, 86.87 16.89, 100.49 0.97 M68.14 41.84 C79.27 32.1, 91.93 17.03, 106.41 -1.12 M70.28 41.15 C80.64 28.57, 92.51 15.52, 106.79 -0.64 M75.36 42.59 C82.42 33.45, 90.63 22.57, 109.98 1.17 M74.89 40.9 C84.82 29.21, 96.07 18.58, 111.37 0.71 M78.84 42.84 C92.47 23.88, 109.32 8.82, 114.36 2.03 M80.14 41.79 C94.44 25.94, 105.92 10.65, 117.24 -0.54 M84.38 41.32 C93.76 30.95, 103.59 20.2, 122.92 1.06 M85.04 41.02 C100.22 25.74, 115.21 9.73, 121.28 0.09 M89.92 41.66 C100.52 28.69, 109.98 19.44, 126.76 2.07 M90.66 42.09 C103.85 28.22, 115.84 13.12, 126.11 0.13 M96.19 39.86 C104.87 31.92, 110.42 23.87, 132.73 -0.7 M97.08 41.52 C108.21 28.98, 118.79 17.24, 133.42 0.6 M100.92 41.94 C115.38 28.22, 126.53 14.15, 135.57 1.09 M100.99 42.61 C114.47 25.06, 129.26 9.38, 138.51 0.73 M105.52 39.42 C114.85 32.16, 123.73 25.44, 142.67 -0.68 M106.7 42.07 C121.65 23.99, 135.32 7.27, 142.34 -0.33 M113.24 42.97 C118.82 30.44, 128.69 20.99, 146.2 1.09 M111.63 41.85 C122.6 29.95, 132.42 18.83, 148.03 1.26 M115.92 41.88 C128.7 27.79, 136.7 18.91, 151.85 -1.82 M117.41 41.74 C129.24 28.29, 139.33 16.41, 152.91 -0.34 M124.11 41.69 C138.79 26.27, 149.63 9.5, 158.95 -1.28 M123.37 41.22 C132.3 29.26, 143.03 17.9, 159.07 0.17 M129.81 39.74 C140.04 26.84, 150.03 16.14, 165.22 0.62 M127.58 42.04 C143.09 25.43, 156.99 8.96, 165.34 -1.16 M132.61 42.71 C147.14 26.51, 162.31 10.16, 170.94 -0.73 M132.36 42.05 C142.94 31.61, 152.45 20.6, 169.87 -0.69 M138.42 42.2 C150 26.5, 161.76 15.59, 175.59 1.01 M139.36 41.87 C150.79 30.11, 160.15 16.34, 174.14 0.41 M145.65 40.29 C154.65 28.84, 164.68 19.12, 178.13 -1.27 M143.06 42.62 C156.32 27.34, 168.93 13.13, 179.49 0.96 M147.86 41.09 C160.33 29.02, 172.71 14.45, 185.59 1.4 M149.78 40.6 C162.02 27.05, 175.01 11.67, 185.17 -0.53 M156 40.34 C165.79 27.16, 176.31 16.33, 189.34 1.69 M155.26 41.08 C166.51 27.78, 177.37 16.02, 190.84 0.84 M161.07 40.91 C171.42 28.24, 184.94 15.28, 197.71 1.47 M159.65 40.97 C173.15 26.58, 185.86 11.35, 196.62 0.08 M164.28 42.42 C175.03 31.74, 184.78 18.42, 200.22 -0.56 M165.08 42.55 C177.89 27.09, 190.67 12.8, 201.63 1.05 M171.81 40.79 C181.12 28.2, 192.13 16.48, 208.26 0.6 M170.64 42.19 C181.16 29.92, 190.2 17.25, 206 0.18 M176.93 41.78 C188.11 26.63, 203.32 10.76, 211.27 -0.1 M175.97 42.05 C187.97 26.85, 199.2 13.72, 211.42 -0.84 M182.07 41.31 C187.91 33.09, 195.32 22.23, 217.43 -0.23 M181.59 41.6 C191.62 30.54, 200.55 17.75, 217.16 0.67 M188.26 43.28 C197.6 30.4, 206.72 17.86, 221.85 1.67 M185.72 41.53 C197.01 27.37, 210.54 14.27, 222.59 -0.88 M190.62 43.41 C201.99 29.4, 212.26 20.81, 227.23 -0.35 M192.12 42.75 C202.05 29.74, 213.04 16.84, 227.24 0.34 M198.39 43.48 C209.84 27.08, 221.22 12.36, 232.12 -0.03 M197.42 40.84 C207.11 29.88, 217.74 17.86, 233.33 0.33 M203.11 42.97 C211.83 28.32, 226.33 15.3, 238.21 0.09 M201.71 42.82 C213.61 28.95, 222.59 17.29, 238.46 0.44 M207.32 40.56 C217.17 33.77, 224.19 22.33, 239.23 7.52 M208.52 40.79 C220.48 29.02, 232.07 14.41, 238.79 7.39 M212.71 41.76 C221.8 30.66, 228.64 22.76, 238.19 12.1 M213.35 42.7 C221.28 30.77, 231.48 19.16, 237.74 13.67 M216.87 40.38 C224.01 35.13, 225.91 31.67, 235.69 18.1 M217.76 42.07 C222.13 35.44, 227.67 29.89, 236.49 18.79 M221.41 42.2 C228.81 35.72, 233.33 30.74, 235.91 24.76 M223.83 42.69 C227.73 36.94, 232.76 31.26, 237.44 26.02 M228.82 42.08 C231.48 40.17, 231.59 37, 237.93 30.64 M228.52 42 C231.62 38.03, 234.01 34.55, 237.85 31.45 M234.02 41.65 C235.97 40.73, 236.84 39.06, 237.58 37.27 M234.24 41.68 C235.4 40.05, 236.84 38.32, 237.96 37.47" stroke="#40c057" stroke-width="0.5" fill="none"></path><path d="M0.89 -1.45 C53.53 1.91, 107.25 2.03, 237.04 0.06 M-0.65 0.13 C81.48 1.93, 161.61 1.26, 236.63 -0.34 M236.33 -0.04 C237.58 15.14, 237.11 28.82, 237.35 40.84 M236.75 -0.11 C237.07 10.15, 237.1 20.72, 235.84 41.1 M236.51 40.67 C144.62 40.17, 51.86 40.46, -1.5 39.13 M236.39 41.47 C172.07 40.76, 106.75 42.11, -0.19 41.39 M-0.38 39.36 C2.09 29.57, 0.55 19.98, -1.65 1.15 M0.69 40.74 C0.52 25.74, 0.25 12.32, -0.24 -0.93" stroke="#000000" stroke-width="1" fill="none"></path></g><g transform="translate(44.658333914620584 93.80276925223188) rotate(0 98.5 19.5)"><text x="0" y="15.5" font-family="Cascadia, Segoe UI Emoji" font-size="16px" fill="#000000" text-anchor="start" style="white-space: pre;" direction="ltr">Landscaper controller</text><text x="0" y="35" font-family="Cascadia, Segoe UI Emoji" font-size="16px" fill="#000000" text-anchor="start" style="white-space: pre;" direction="ltr"></text></g><g stroke-linecap="round" transform="translate(30.545043945312045 141.49681112692724) rotate(0 105.4953438895095 68.58345010353969)"><path d="M0 0 C0 0, 0 0, 0 0 M0 0 C0 0, 0 0, 0 0 M-0.89 5.74 C1.97 4.04, 4.01 1.6, 5.53 0.75 M-0.28 6.05 C1.64 3.97, 3.39 1.91, 5.37 0.01 M-1.03 11.03 C2.73 6.89, 6.2 5.12, 9.72 -1.1 M-0.12 11.55 C3.03 8.04, 6.76 4.17, 10.07 0.72 M-0.19 18.61 C4.66 16.61, 6.98 9.69, 15.92 0.05 M0.73 18.6 C2.74 13.15, 7.08 10.3, 14.89 0.92 M1.5 23.94 C9.18 16.44, 16.19 7.97, 20.63 0.37 M0.26 24.21 C7.04 17.04, 13.52 9.09, 20.28 -0.24 M0.35 30.1 C7.99 22.1, 15.09 11.73, 25.34 0.98 M0.71 31.11 C9.16 19.46, 17.41 10.1, 26.43 0.42 M-2.25 36.21 C8.11 26.86, 16.74 18.18, 33.3 -0.8 M-0.84 36.39 C5.6 29.99, 12.43 22.35, 32.61 -0.62 M-0.43 42.87 C11.71 28.87, 21.43 17.01, 35.62 -0.18 M0.23 42.41 C10.43 29.27, 21 16.76, 37.45 0.46 M1.62 47.88 C18.67 29.86, 31.88 11.48, 42.08 0.48 M-0.21 48.84 C15.2 31.68, 30.02 12.13, 42.9 -0.48 M-0.06 56.39 C16.42 33.78, 31.7 14.4, 47.43 -0.89 M0.32 54.18 C18.86 34.21, 37.37 12.34, 46.74 0.32 M1 60.37 C12.09 42.99, 30.31 28.18, 54.22 -0.59 M-0.64 61.54 C17.36 40.36, 35.79 20.29, 52.53 -0.75 M-0.08 68.75 C14.26 51.86, 24.9 35.72, 59.09 -1.78 M-1.21 68.18 C12.41 53.52, 23.44 39.37, 58.05 1.13 M2.07 71.17 C13.8 58.58, 30.37 39.74, 63.61 -0.97 M0.64 73.54 C20.18 51.13, 37.59 28.29, 63.31 -0.03 M-1.4 79.61 C21.54 51.34, 43.19 25.65, 68.58 -0.63 M-0.19 80.26 C15.75 62.65, 29.8 44.96, 69.01 0.81 M-1.31 84.63 C26.38 51.81, 55.33 20.5, 72.82 0.25 M0.36 84.72 C20.35 62.68, 38.94 41.23, 74.48 0.42 M1.76 92.74 C24.1 62.56, 47.97 36.06, 79.52 1.62 M-0.97 91.83 C26.97 60.09, 53.19 30.07, 80.19 -0.86 M1.71 98.68 C16.64 76.62, 38.07 53.67, 83.04 -0.22 M-0.5 97.54 C24.39 68.58, 48.43 40.8, 85.69 -0.35 M-1.53 103 C20.98 80.46, 45.07 55.91, 91.22 -1.13 M-0.83 103.89 C18.86 83.03, 37.84 59.79, 90.09 0.72 M-0.38 111.86 C25.94 78.64, 54.08 46.52, 96.16 0.22 M-1.09 109.03 C22.9 83.51, 45.02 58.3, 96.03 0.05 M-1.51 115.09 C29.66 84.31, 53.9 54.79, 100.61 1.88 M0.36 114.76 C35.19 76.48, 70.39 37.17, 100.13 -0.02 M0.56 121.78 C22.38 97.16, 44.27 71.53, 104.69 -0.02 M0.41 122.31 C26.3 93.79, 50.44 64, 106.99 0.33 M1.55 126.32 C43.57 78.66, 85.63 28.79, 112.29 0.23 M0.51 127.85 C35.41 85.51, 72.08 41.82, 111.63 0.16 M1.03 132.17 C40.05 88.31, 79.1 41.38, 117.16 0.08 M0.41 134.56 C24.65 104.68, 48.69 77.49, 116.83 1.3 M-0.66 140.05 C46.57 88.2, 90.43 37.56, 120.53 0.37 M0.24 138.13 C30.46 106.01, 59.55 70.91, 122.86 0.36 M5.72 140.05 C43.97 93.77, 82.89 50.23, 126.71 -0.89 M6.79 139.26 C52.64 85.65, 97.4 34.96, 126.22 -0.19 M10.78 138.21 C52.46 93.58, 92.06 48.76, 131.24 -0.42 M11.16 139.59 C42.05 104.06, 71.52 71.65, 131.99 0.47 M17.79 139.83 C43.52 106.71, 69.4 79.06, 137.19 -0.2 M18.16 139.29 C53.69 96.54, 89.53 53.22, 137.26 0.32 M23.05 139.45 C62.11 90.88, 103.96 45.74, 143.99 -0.02 M21.91 138.45 C65.45 90.84, 107.93 40.95, 144.12 0.24 M28.74 140.29 C62.37 99.54, 97.22 58.66, 147.74 -0.07 M28.76 138.83 C61.03 101.23, 94.47 62.12, 149.14 0.86 M31.18 139.69 C76.22 90.25, 117.86 45.88, 154.01 -1.47 M32.76 138.66 C72.5 93.57, 112.47 47.86, 154.29 0.24 M37.69 136.54 C63.57 109.46, 91 80.21, 158.17 -0.85 M38.66 138.4 C79.89 93.12, 119.19 47.51, 158.46 0.78 M42.86 140.7 C83.79 96.42, 123.9 51.26, 166.18 1.06 M43.36 139.53 C85.13 91.65, 125.67 43.05, 164.43 -1.14 M49.39 136.49 C72.56 108.77, 97.84 80.09, 170.94 0.93 M48.87 138.32 C74.24 108, 99.83 78.92, 170.27 -0.24 M52.4 140.09 C96.11 93.28, 136.58 47.3, 177.04 0.21 M53.81 138.66 C92.06 96, 129.08 53.28, 174.41 -0.67 M60.25 138.95 C101.08 90.25, 139.23 45.99, 181.16 -1.39 M60.33 137.77 C87.53 105.07, 116.48 72.31, 181.01 0.83 M66.82 137.3 C91.4 110.33, 119.29 78.89, 184.79 1.49 M65.63 139.02 C110.75 86.23, 155.61 35.19, 185.02 0.69 M72.35 139.52 C117.68 85.08, 165.5 28.56, 190.61 1.36 M70.89 137.72 C96.43 110.71, 120.85 81.73, 191.56 -0.69 M75.75 139.64 C111.68 97.41, 149.61 51.92, 195.27 1.24 M74.75 137.88 C102.86 107.68, 130.46 75.52, 196.96 -1.18 M79.41 136.69 C112.01 104.51, 140.14 69.72, 201.72 0.19 M80.31 137.99 C118.04 96.36, 153.55 54.94, 202.21 -0.12 M85.51 140.24 C125.63 89.55, 169.42 42.85, 208 0.65 M86.54 137.84 C131.66 87.47, 175.47 36.63, 207.89 -0.57 M92.82 137.75 C125.16 101.46, 154.02 67.38, 210.93 2.72 M91.3 138.24 C138.71 84.49, 184.6 32.32, 211.03 0.28 M97.05 140.08 C137.01 93.09, 175.92 46.23, 212.24 6.53 M96.77 137.84 C125.91 105.02, 154.26 74.54, 211.43 5.85 M103.62 136.87 C133.74 103.46, 163.06 66.95, 210.78 12.21 M102.47 138.92 C135.63 99.54, 168.86 58.92, 210.97 13.41 M107.99 138.01 C140.66 100.64, 174.3 61.68, 210.12 18.26 M106.65 138.15 C142.3 97.76, 175.72 59.06, 211.39 18.93 M111.84 137.8 C140.84 105.08, 167.45 75.66, 211.52 25.89 M112.7 139.1 C132.42 115.36, 154.02 90.44, 212.43 24.61 M118.61 136.68 C154.73 94.9, 189.48 57.08, 210.05 31.03 M117.8 139.34 C141.12 112.39, 164.64 83.82, 212.09 31.34 M123.15 136.88 C148.8 110.9, 171.48 81.65, 210.2 38.15 M122.76 138.4 C157.96 100.19, 192.85 60.1, 211.4 37.84 M129.83 136.61 C147.91 118.38, 164.71 94.21, 211.48 43.88 M129.27 139.34 C148.2 115.05, 167.72 93.31, 212.17 42.59 M134.9 137.54 C150.97 118.83, 168.84 100.66, 210.54 47.22 M134.39 138.53 C154.63 114.96, 173.83 92.26, 212.29 49.42 M141.25 138.16 C156.99 116.23, 176.32 95.18, 211.54 56.98 M138.53 138.4 C158.69 115.36, 177.27 93.71, 212.21 55.28 M144.76 137.31 C165.39 115.29, 186.7 93.51, 212.25 61.94 M143.89 139.27 C171.12 109.38, 197.09 78.97, 212.26 61.74 M149.1 139.54 C167.13 122.32, 178.3 105.65, 213.68 66.58 M150.47 138.08 C172.12 113.66, 193.69 89.73, 212.39 67.08 M156.04 138.58 C173.43 118.95, 188.62 101.29, 211.66 72.72 M154.48 138.24 C169.38 123.4, 183.2 106.45, 210.89 73.26 M160.28 138.79 C173.15 122.07, 189.34 108.11, 212.99 79.76 M160.39 138.3 C172.38 125.27, 184.27 110.69, 212.77 78.5 M163.73 138.56 C181.47 119.86, 196.89 102.09, 211.79 86.08 M165.31 137.87 C179.12 124.04, 192.29 108.06, 211.18 86.03 M170.35 139.79 C187.35 121.96, 200.86 103.5, 209.59 93.23 M171.04 138.29 C182.73 125.66, 194.46 111.72, 211.72 92.63 M176.46 139.31 C184.09 128.33, 193.25 122.69, 210.99 99.63 M176.46 138.45 C183.29 129.05, 192.25 120.04, 211.22 97.66 M181.52 138.3 C194.4 124.97, 204.28 111.28, 213.2 104.26 M181.57 137.59 C188.52 131.34, 195.13 123.06, 211.48 105.11 M186.51 137.74 C195.11 131.71, 201.11 124.26, 212.24 108.82 M185.91 139.06 C195.04 128.59, 205.61 118.62, 212.54 109.1 M192.66 139.87 C199.09 129.58, 207.13 123.89, 213.23 117.21 M192.55 139.1 C199.21 131.04, 205.65 123.09, 211.23 115.7 M195.84 139.6 C202.21 133.3, 206.44 126.6, 212.55 121.69 M196.57 138.64 C202.38 133.4, 206.65 129.35, 210.42 122.4 M201.95 138.02 C206.34 135.23, 207.64 133.53, 211.52 127.2 M203.06 138.09 C206.65 134.23, 210.33 130.94, 211.09 128.26 M208.63 138.28 C208.98 137.67, 210.06 136.13, 211.46 134.56 M207.94 138.65 C208.77 137.72, 209.57 136.52, 211.46 134.74" stroke="white" stroke-width="0.5" fill="none"></path><path d="M-0.92 -0.03 C59.85 -1.82, 118.07 -1.49, 211.41 -0.03 M-0.11 0.35 C57.14 1.02, 115.32 0.87, 211.58 0.31 M209.11 0.26 C209.93 49.94, 212.24 99.55, 212.31 138.83 M211.58 -0.42 C211.17 40.3, 209.92 82.12, 211.19 137.96 M209.36 135.84 C134.03 136.27, 57.81 135.5, -0.57 135.56 M211.23 137.47 C135.12 138.19, 58.97 137.22, -0.85 136.4 M0.65 137.53 C-0.3 88.49, -0.59 39.03, -1.06 1.63 M0.78 136.67 C1.18 82.53, 0.66 27.42, -0.72 -0.86" stroke="#000000" stroke-width="1" fill="none"></path></g><g transform="translate(38.64020548126973 147.43362263693325) rotate(0 71 12)"><text x="0" y="20" font-family="Cascadia, Segoe UI Emoji" font-size="20px" fill="#000000" text-anchor="start" style="white-space: pre;" direction="ltr">OCI Registry</text></g><g transform="translate(42.5394984654024 193.5062357013294) rotate(0 89 39)"><text x="0" y="15.5" font-family="Cascadia, Segoe UI Emoji" font-size="16px" fill="#000000" text-anchor="start" style="white-space: pre;" direction="ltr">OCI Artifacts [</text><text x="0" y="35" font-family="Cascadia, Segoe UI Emoji" font-size="16px" fill="#000000" text-anchor="start" style="white-space: pre;" direction="ltr">- Component Archive</text><text x="0" y="54.5" font-family="Cascadia, Segoe UI Emoji" font-size="16px" fill="#000000" text-anchor="start" style="white-space: pre;" direction="ltr">- ...</text><text x="0" y="74" font-family="Cascadia, Segoe UI Emoji" font-size="16px" fill="#000000" text-anchor="start" style="white-space: pre;" direction="ltr">]</text></g><g stroke-linecap="round"><g transform="translate(195.52447790299368 521.4673113226672) rotate(0 150.2711114301465 -0.017044583409187908)"><path d="M0.99 0.83 C51.13 0.88, 250.59 -0.66, 300.49 -0.87 M0.05 0.22 C50.07 0.52, 249.65 0.25, 299.57 0.36" stroke="black" stroke-width="4" fill="none"></path></g></g><g stroke-linecap="round"><g transform="translate(204.27600353020324 545.2902447865354) rotate(0 -11.46233968703271 -73.3935398193621)"><path d="M-6.31 -24.16 C-9.07 -25.1, -20.78 -27.06, -24.87 -28.85 C-28.97 -30.63, -28.92 -31.34, -30.88 -34.86 C-32.83 -38.38, -35.9 -42.84, -36.61 -49.96 C-37.31 -57.08, -36.19 -70.39, -35.1 -77.57 C-34.01 -84.75, -33.51 -87.99, -30.06 -93.04 C-26.61 -98.08, -19.92 -103.18, -14.42 -107.85 C-8.92 -112.51, -1.49 -118.88, 2.94 -121.03 C7.38 -123.18, 10.56 -120.76, 12.2 -120.76 M-7.33 -25.18 C-9.59 -26, -18.41 -25.44, -22.47 -27.35 C-26.53 -29.25, -29.3 -32.93, -31.7 -36.61 C-34.1 -40.29, -36.58 -42.16, -36.86 -49.43 C-37.14 -56.7, -34.66 -73.35, -33.39 -80.24 C-32.12 -87.12, -32.56 -86, -29.23 -90.75 C-25.89 -95.5, -19.11 -103.61, -13.39 -108.72 C-7.66 -113.83, 0.56 -119.19, 5.12 -121.42 C9.67 -123.66, 12.54 -122.1, 13.94 -122.14" stroke="black" stroke-width="4" fill="none"></path></g></g><g stroke-linecap="round"><g transform="translate(219.62616229519114 446.7802779956555) rotate(0 59.6224812351049 -74.8903991781176)"><path d="M-2.62 -25.62 C-4.47 -31.64, -11.17 -51.19, -12.77 -60.32 C-14.37 -69.45, -12.73 -75.11, -12.21 -80.39 C-11.7 -85.68, -13.04 -86.94, -9.68 -92.03 C-6.31 -97.11, 2.43 -106.39, 7.98 -110.9 C13.54 -115.41, 17.9 -116.64, 23.63 -119.1 C29.36 -121.56, 34.26 -124.6, 42.36 -125.67 C50.45 -126.73, 62.05 -126.78, 72.19 -125.51 C82.33 -124.24, 96.64 -120.37, 103.18 -118.04 C109.73 -115.71, 106.54 -118.53, 111.47 -111.52 C116.41 -104.51, 129.34 -81.56, 132.79 -75.99 M-4.05 -23.32 C-6.15 -29.21, -12.36 -49.46, -13.75 -58.84 C-15.14 -68.22, -13.01 -74.15, -12.39 -79.58 C-11.76 -85, -13.25 -86.15, -10 -91.4 C-6.75 -96.65, 1.33 -106.36, 7.12 -111.09 C12.91 -115.81, 19.27 -117.63, 24.72 -119.75 C30.16 -121.87, 32.08 -122.75, 39.81 -123.81 C47.54 -124.87, 60.83 -126.83, 71.11 -126.09 C81.39 -125.35, 94.68 -121.79, 101.52 -119.38 C108.35 -116.98, 106.78 -118.54, 112.1 -111.66 C117.42 -104.77, 130.34 -84.12, 133.45 -78.07" stroke="black" stroke-width="4" fill="none"></path></g></g><g stroke-linecap="round"><g transform="translate(350.04506884776697 371.81901340547574) rotate(0 57.54581989735365 9.547185840017391)"><path d="M-0.59 -3.85 C2.05 -5.48, 9.99 -10.81, 16.68 -13.5 C23.37 -16.19, 27.4 -20.19, 39.54 -20.01 C51.68 -19.83, 78.17 -15.54, 89.53 -12.42 C100.89 -9.3, 103.34 -9.86, 107.7 -1.27 C112.06 7.31, 114.62 32.54, 115.68 39.1 M1.3 -4.93 C3.7 -6.87, 8.9 -12.64, 15.68 -15.03 C22.45 -17.42, 29.66 -19.38, 41.93 -19.27 C54.2 -19.16, 78.07 -17.38, 89.3 -14.37 C100.53 -11.36, 105.22 -10.03, 109.31 -1.21 C113.4 7.6, 113 32.22, 113.82 38.54" stroke="black" stroke-width="4" fill="none"></path></g></g><g stroke-linecap="round"><g transform="translate(499.71939369770655 551.2815272822336) rotate(0 8.83347503723644 -90.40489755012095)"><path d="M-6.06 -30.21 C-1.37 -32.71, 14.78 -39.71, 22.18 -45.69 C29.58 -51.67, 34.27 -59.48, 38.33 -66.08 C42.39 -72.67, 45.45 -77.85, 46.52 -85.27 C47.59 -92.69, 46.36 -102.58, 44.75 -110.6 C43.15 -118.61, 41.37 -127.14, 36.9 -133.37 C32.43 -139.6, 24.13 -145.14, 17.92 -147.96 C11.71 -150.78, 6.23 -150.88, -0.36 -150.3 C-6.94 -149.72, -16.75 -146.44, -21.57 -144.46 C-26.4 -142.49, -27.9 -139.11, -29.29 -138.46 M-7.55 -31.31 C-2.93 -33.64, 13.79 -39, 21.83 -44.65 C29.86 -50.31, 37 -58.55, 40.65 -65.23 C44.3 -71.91, 42.72 -77.31, 43.71 -84.74 C44.71 -92.17, 48.05 -102.07, 46.61 -109.81 C45.18 -117.56, 39.8 -125.2, 35.12 -131.21 C30.44 -137.22, 24.59 -142.66, 18.51 -145.89 C12.43 -149.12, 5 -150.66, -1.38 -150.6 C-7.75 -150.54, -15.26 -147.58, -19.72 -145.53 C-24.19 -143.49, -26.54 -139.23, -28.18 -138.32" stroke="black" stroke-width="4" fill="none"></path></g></g><g stroke-linecap="round" transform="translate(237.48899503204643 375.04036843450467) rotate(0 106.57943498760596 68.98117069429054)"><path d="M0 0 C0 0, 0 0, 0 0 M0 0 C0 0, 0 0, 0 0 M-0.38 6.13 C1.97 4.8, 3.35 3.16, 4.25 1 M-0.16 6.4 C0.96 4.83, 2.99 2.67, 4.76 0.06 M-1.16 11.47 C3.12 7.09, 8.42 3.08, 11.14 -0.49 M-0.06 12.47 C3.58 7.56, 9.07 1.94, 10.41 -0.01 M0.8 19.46 C6.95 13.01, 9.4 6.92, 16.36 1.81 M-1.01 19.01 C2.94 14.5, 6.49 10.93, 15.61 -0.31 M1.16 25.37 C4.28 20.8, 8.87 13.59, 22.04 0.87 M1.01 25.01 C7.47 15.56, 14.6 7.7, 21.13 -0.08 M1.29 28.75 C10.07 19.16, 19.4 6.15, 26.8 1.6 M-0.5 30.67 C6.86 21.91, 15.16 13.5, 27.2 0.77 M-0.08 35.9 C10.33 27.01, 20.82 15.19, 32.89 1.83 M-0.75 36.41 C10.09 27.03, 19.38 14.24, 32.42 0.89 M-1.66 43.4 C8.83 32.6, 18.39 21.35, 38.59 1.64 M-0.06 43.03 C9.86 32.23, 19.28 20.31, 37.16 0.37 M0.09 47.86 C9.6 36.62, 22.99 24.01, 43.02 -1.23 M-1.06 48.73 C10.72 36.52, 20.23 25.95, 42.53 0.45 M-0.98 54.03 C15.47 36.58, 31.1 19.36, 46.49 2.11 M-0.36 53.61 C9.53 43.43, 19.05 31.91, 47.85 0.33 M-0.34 60.31 C15.02 42.9, 33.5 24.33, 51.28 -0.95 M0.87 60.49 C17.07 41.79, 34.02 21.47, 53.65 -1.03 M1.39 66.86 C20.2 44.4, 42.12 21.7, 57.95 1.02 M-0.76 67.45 C20.28 45.05, 38.87 23.08, 59.08 -0.17 M1.96 73.37 C24.95 43.52, 48.88 17.94, 62.18 -1.16 M-0.1 72.8 C17.17 53.45, 34.35 32.7, 62.92 0.68 M-0.85 78.7 C19.75 56.44, 42.01 33.5, 67.05 0.23 M0.24 79.2 C26.03 50.36, 53.03 19.92, 69.06 0.36 M0.92 83.05 C18.72 62.49, 36.65 44.89, 75.88 1.18 M-0.71 85.1 C16.46 66.81, 31.37 48.81, 75.41 0.59 M-0.31 91.45 C28.5 59.75, 55.32 27.58, 80.52 -0.56 M0.1 90.59 C18.5 68.99, 37.07 46.97, 79.43 0.74 M-1.48 95.92 C20.88 75.13, 41.27 50.74, 86.2 -2.06 M-0.89 96.9 C22.86 73.16, 45.17 46.49, 85.07 -0.42 M0.71 103.12 C17.66 82.17, 36.68 61.4, 91.78 -1.79 M-0.14 104.42 C24.55 73.21, 51.18 44.03, 90.25 0.12 M1.35 108.13 C25.72 79.89, 50.45 51.62, 94.62 -0.16 M-0.22 109.78 C29.08 79.25, 56.55 47.05, 95.82 -0.66 M-0.46 114.55 C28.82 87.57, 54.94 56.64, 98.86 1.91 M0.48 116.31 C28.8 84.28, 57.87 50.24, 101.02 0.99 M-1.33 119.97 C32.58 83.41, 66.79 43.87, 108.27 -1.57 M-0.79 122.91 C37.19 77.35, 77.47 32.63, 106.47 -0.62 M-1.44 128.17 C23.79 102.73, 44.74 77, 110.5 -0.21 M-0.82 128.48 C30.72 91.85, 62.68 53.69, 111.63 0.15 M-0.93 134.79 C44.14 86.32, 88.27 35.35, 117.29 0.9 M0.35 133.04 C38.75 89.74, 78.21 42.69, 117.1 0.81 M3.03 137.51 C47.79 84.71, 95.98 26.81, 120.05 -1.08 M0.4 138.2 C40.78 93.82, 81.58 47.46, 121.41 -0.25 M5.71 139 C49.37 87.79, 89.38 39.03, 127.43 0.96 M5.5 139.46 C38.78 101.97, 70.54 66.73, 126.7 0.3 M12.52 139.64 C48.75 93.07, 88.16 49.08, 131.53 -1.78 M12.08 139.27 C49.43 95.9, 89.28 52.06, 132.11 0.24 M17.16 139.16 C53.05 99.12, 88.16 58.29, 138.15 1.47 M16.16 140.07 C56.12 93.6, 95.32 49.8, 138.19 -0.4 M21.79 137.33 C60.49 95.01, 97.58 51.92, 141.63 -1.54 M21.68 139.21 C63.13 90.89, 103.99 43.5, 142.91 -0.58 M29.39 139.43 C52.36 111.45, 75.43 83.82, 147.19 1.37 M27.98 139.88 C69.98 90.5, 112.93 42.7, 148.09 -0.45 M32.5 139.65 C64.54 104.39, 94.12 68.86, 153.69 0.25 M32.77 138.79 C79.2 85.61, 126.42 30.73, 153.4 -0.59 M37.61 138.56 C85.78 87.11, 131.82 31.92, 159.98 -1.56 M37.61 138.97 C73.37 97, 110.5 57.55, 158.81 -0.19 M41.92 138.51 C74.57 101.86, 107.99 67.57, 163.69 -1.97 M42.85 139.59 C69.63 106.99, 96.28 76.42, 164.58 -0.33 M49.69 137.12 C94.33 87.8, 138.01 35.37, 167.58 -0.7 M49.12 138.71 C92.37 88.98, 134.82 39.16, 169.71 -0.14 M53.01 138.66 C102.17 84.34, 147.38 29.05, 174.29 -1.89 M54.32 139.05 C87.23 99.27, 121 61.26, 175.91 -0.04 M60.15 139.53 C98.91 96.59, 137.13 49.29, 180.72 1.42 M59.02 138.82 C90.92 102.01, 120.67 68.42, 180.07 0.03 M64.36 139.68 C107.83 88.45, 149.18 40.63, 184.79 0.63 M65.52 139.43 C113.53 85.16, 160.73 31.59, 186.24 -0.6 M68.17 140.06 C98.18 106.95, 127.97 72.99, 191.78 -0.89 M69.24 138.34 C111.2 92.82, 151.95 45.02, 190.08 0.45 M76.23 138.03 C122.74 85.42, 169.42 30.02, 197.15 1.57 M75.72 138.8 C106.41 101.7, 138.33 63.89, 196.85 -0.59 M79.6 140.82 C102.3 113.91, 126.91 83.57, 200.81 1.53 M80.1 138.65 C118.24 94.8, 155.36 51.45, 201.86 0.11 M84.55 136.97 C130.34 84.53, 176.18 33.61, 205.99 -1.25 M86.08 138.07 C132.59 83.65, 180.48 29.11, 206.44 -1.24 M92.91 137.75 C125.72 99.09, 156.75 62.79, 213.5 -1.32 M91.38 138.44 C123.59 99.93, 156.89 60.16, 212.44 -0.21 M98.21 137.38 C142.76 90.51, 185.93 37.13, 214.61 0.12 M96.06 138.75 C138.25 90.52, 180.66 40.37, 216.17 2.81 M101.27 138.67 C126.01 107.25, 155.51 77.27, 215.98 7.7 M101.27 138.74 C136.6 97.7, 172.48 58.54, 215.57 7.44 M107.77 140.73 C130.77 112.11, 153.04 81.97, 214.39 12.73 M106.99 138.88 C139.34 102.07, 173.23 63.63, 216.03 13.51 M114.47 137.19 C133.32 111.43, 158.91 85.22, 215.21 21.75 M113.37 137.9 C142.02 106.17, 169.76 74.66, 215.06 19.97 M119.45 139.59 C152.59 101.06, 187.25 58.79, 213.79 26.89 M117.16 138.61 C145.54 107.11, 173.68 75.81, 214.85 26.57 M124.98 138.82 C150.38 105.61, 178.69 76.74, 217.11 33.59 M123.71 138.62 C142.33 116.72, 163.03 94.52, 216.02 31.92 M127.79 140.6 C145.29 119.39, 163.91 97.54, 215.35 38.3 M127.43 140.17 C156.13 108.59, 185.3 76.76, 216.35 38.54 M133.91 138.87 C158.31 111.71, 179.98 85.82, 214.03 44.6 M133.76 138.9 C161.72 104.19, 192.12 71.18, 215.15 45.37 M136.98 139.27 C156.64 119.93, 170.82 102.91, 214.33 52.74 M139.6 139.61 C162.82 110.82, 187.73 83.36, 214.67 50.58 M145.05 140.52 C169.88 109.76, 194 82.07, 213.27 55.74 M145.37 139.08 C166.72 113.66, 187.18 88.71, 214.45 58.04 M150.88 137.94 C174.93 111.36, 199.05 78.81, 215.27 61.11 M149.38 139.81 C174.56 111.21, 198.59 84.39, 216.05 62.42 M154.81 136.79 C177.77 114.88, 197.26 87.4, 213.78 70.57 M155.86 138.83 C171.53 118.84, 189.18 100.18, 214.8 69.19 M159 139.8 C177.06 119.73, 196.03 98.8, 217.39 74.16 M159.4 139.48 C172.57 124.74, 184.82 110.37, 215.14 74.13 M166.29 140.53 C187.2 116.38, 205.07 94.58, 216.19 81.75 M164.93 138.15 C176.23 125.38, 188.13 112.91, 215.05 81.16 M170.49 138.87 C180.6 127.7, 191.28 116.67, 215.9 89.2 M170.2 138.14 C182.71 124.31, 194.28 110.11, 215.38 87.83 M175.22 138.44 C185.53 130.42, 193.15 118.26, 215.46 94.03 M175.73 138.36 C187.78 124.9, 200.94 110.5, 215.6 93.38 M180.19 138.04 C188.45 129.33, 199.64 119.3, 214.64 101.14 M181.28 139.17 C193.13 125.52, 205.2 113.89, 214.56 99.75 M188.02 137.08 C196.28 126.48, 204.45 115.13, 214.18 106.99 M187.83 139.12 C194.66 129.76, 203.27 119.19, 214.79 106.11 M190.56 139.02 C197.75 130.37, 205.09 124.72, 216.13 113.02 M192.03 138.75 C197.58 132.46, 203.99 127.03, 215.96 111.67 M195.72 136.82 C200.17 134.99, 206.37 129.56, 215.96 117.85 M198.19 139.39 C201.92 132.31, 207.53 128.12, 215.22 118.18 M201.75 140.37 C206.87 132.76, 212.61 125.56, 214.2 122.94 M202.76 138.91 C206.17 134.47, 209.86 131.46, 215.91 122.97 M207.44 138.92 C209.28 135.85, 213.03 131.67, 214.56 129.11 M207.55 139.28 C210.85 136.02, 213.16 132.31, 215.38 130.7" stroke="white" stroke-width="0.5" fill="none"></path><path d="M1.19 -1.03 C84.26 1.51, 168.37 1.33, 214.55 -0.46 M0.59 0.08 C53.14 1.66, 105.11 1.52, 212.6 0.25 M214.48 -0.2 C210.98 42.39, 210.84 85.35, 214.66 137.46 M213.01 0.55 C212.3 32.98, 213.28 65.14, 213.01 137.64 M214.01 137.87 C157.56 140.7, 100.64 139.72, -1.68 137.16 M212.44 138.18 C137.21 137.28, 61.5 137.43, -0.48 137.22 M-0.12 136.26 C-1.18 99.98, -1.89 57.39, 1.35 -0.86 M0.35 137.64 C-0.29 90.71, -0.38 42.69, 0.76 -0.02" stroke="#000000" stroke-width="1" fill="none"></path></g><g transform="translate(245.66734405510306 381.03818779824996) rotate(0 71.72961009583005 12.1233143823938)"><text x="0" y="20.24662876478761" font-family="Cascadia, Segoe UI Emoji" font-size="20.20552397065636px" fill="#000000" text-anchor="start" style="white-space: pre;" direction="ltr">OCI Registry</text></g><g transform="translate(249.51615135969132 427.5842521814111) rotate(0 71.22447199656364 39.40077174277985)"><text x="0" y="15.700385871389937" font-family="Cascadia, Segoe UI Emoji" font-size="16.164419176525087px" fill="#000000" text-anchor="start" style="white-space: pre;" direction="ltr">OCI Artifacts [</text><text x="0" y="35.400771742779874" font-family="Cascadia, Segoe UI Emoji" font-size="16.164419176525087px" fill="#000000" text-anchor="start" style="white-space: pre;" direction="ltr">- Hello App</text><text x="0" y="55.10115761416981" font-family="Cascadia, Segoe UI Emoji" font-size="16.164419176525087px" fill="#000000" text-anchor="start" style="white-space: pre;" direction="ltr">- ...</text><text x="0" y="74.80154348555975" font-family="Cascadia, Segoe UI Emoji" font-size="16.164419176525087px" fill="#000000" text-anchor="start" style="white-space: pre;" direction="ltr">]</text></g><g stroke-linecap="round" transform="translate(21.43048967633922 572.1583339146191) rotate(0 180.16305106026783 130.601457868303)"><path d="M0 0 C0 0, 0 0, 0 0 M0 0 C0 0, 0 0, 0 0 M-0.66 5.68 C1.54 4.02, 2.79 2.2, 5.77 -0.13 M-0.42 6.34 C1.1 4.39, 3.28 2.32, 4.71 0.74 M-0.94 11.03 C2.21 7.97, 6.33 3.84, 11.19 -1.03 M0.58 11.31 C2.13 8.37, 5.2 5.72, 10.5 -0.79 M-0.49 18 C4.77 11.71, 8.75 7.15, 15.92 1.63 M0.72 18.9 C4.06 14.2, 7.2 11.36, 16.49 -0.19 M-0.05 25.92 C9.46 15.04, 15.14 8.09, 22.79 1.67 M-0.52 23.22 C5.76 17.08, 12.7 9.78, 20.51 0.41 M-1.7 30.36 C12.27 18.73, 20.38 5.24, 25.17 1.78 M0.74 30.69 C5.67 23.71, 11.7 18.04, 25.9 0.49 M-2 37.52 C5.58 28.26, 11.85 21.9, 32.28 1.43 M-0.67 36.35 C6.97 28.51, 13.05 21.59, 32.19 0.47 M1.34 43.64 C12.78 26.84, 25.1 13.57, 37.63 2.1 M0.91 41.71 C12.57 27.11, 28.08 10.88, 36.59 0.28 M1.06 48.71 C16.18 29.15, 35.29 9.14, 43.81 -1.32 M0.67 49.84 C15.32 30.87, 30.93 14.04, 42.89 -0.84 M0.52 52.65 C13.02 36.42, 28.66 22.68, 46.87 0.94 M-0.31 53.83 C17.01 34.34, 34.43 16.63, 47.01 0.42 M1.96 60.75 C16.76 42.56, 32 24.64, 53.04 0.95 M0.38 61.64 C20.88 38.31, 41.22 13.16, 53.91 -0.75 M-1.29 67.82 C20.02 44.21, 38.14 22.71, 59.13 -1.48 M-1.21 66.55 C14.04 50.73, 29.38 34.28, 59.07 -0.51 M-1.21 71.94 C19.69 49.23, 42.03 28.81, 65.29 0.63 M-0.6 72.26 C13.05 58.49, 25.37 43.13, 63.48 -0.62 M-1.56 78.12 C20.92 50.72, 43.43 25.59, 67.33 -1.13 M0.81 78.9 C27 48.34, 54.42 15.71, 69.07 0.39 M0.33 84.46 C22.78 58.6, 48.58 32.23, 73.54 0.91 M1.11 84.54 C19.11 63.06, 38.7 40.86, 73.74 -1.04 M-0.12 89.65 C25.3 61.22, 53.57 30.94, 81 -0.11 M0.3 91.02 C27.81 58.17, 54.9 27.85, 78.75 -0.66 M-0.63 99.09 C33.8 58.15, 63.37 23.27, 84.42 -2.12 M-0.35 97.41 C17.08 76.69, 35.16 57.27, 85.76 -0.71 M1.56 104.61 C22.28 77.03, 46.39 50.13, 88.38 -0.69 M-0.6 104.11 C28.47 70.33, 58.52 36.13, 90.26 0.92 M1.29 110.17 C27.4 79.71, 53.03 46.65, 96.22 -1.57 M-0.45 109.84 C24.95 82.74, 47.64 55.66, 96.54 0.45 M1.63 116.02 C26.01 85.98, 53.25 57.26, 102.31 0.71 M0.16 116.2 C32.14 78.01, 66.2 38.95, 101.18 1 M-1.82 120.16 C39.1 75.61, 77.78 30.78, 104.88 -1.69 M0.8 122.43 C23.8 94.66, 48.55 67.41, 106 0.36 M-0.74 126.51 C32.78 94.67, 61.58 58.5, 110.33 -0.49 M-1.11 127.93 C27.6 96.29, 54.4 62.55, 111.52 -0.2 M1.45 134.6 C34.45 96.39, 70.91 57.48, 117.36 0.87 M0.45 133.31 C33.73 93.65, 67.35 54.91, 115.3 0.55 M-0.76 139.29 C31.63 102.38, 63.63 68.38, 120.61 0.97 M-0.18 140.46 C44.49 89.87, 88.19 38.79, 122.68 0.87 M-0.85 144.9 C37.28 102.43, 76.24 56.95, 128.22 0.05 M1 145.98 C33.98 109.6, 68.04 69.75, 126.52 0.08 M-1.75 152.65 C42.82 101.91, 83.64 55.51, 132.06 -1.62 M0.1 153.01 C28.51 119.76, 56.23 88.75, 132.52 0.06 M1.15 159 C44.36 105.57, 92.58 53.3, 137.7 -0.97 M0.58 158.97 C36.88 118, 73.11 76.15, 137.67 1.02 M0.43 163.26 C55.62 101.38, 110.93 38.69, 143.88 -1.61 M-0.43 165.03 C46.62 110.03, 94.54 54.59, 142.42 0.51 M0.56 172.31 C44.31 119.63, 90.58 66.76, 148.4 0.42 M-0.74 170.11 C37.45 126.96, 74.95 82.75, 148.36 0.8 M0.86 175.87 C53.72 115.61, 109.53 52.68, 154.56 -0.32 M0.57 175.89 C54.9 112.72, 110.35 51, 153.73 -0.02 M-1.2 183.11 C38.1 137.51, 75.31 94.62, 158.63 -0.98 M0.42 183.12 C52.86 121.23, 106.45 59.01, 158.28 -0.39 M0.74 187.85 C57.44 125.41, 114.79 58.71, 163.25 -0.6 M-0.49 189.7 C43.49 136.83, 88.94 84.68, 163.97 -0.75 M1.34 193.87 C58.73 123.56, 119.19 54.5, 168.34 0.56 M0.75 195.26 C43.33 144.28, 85.83 96, 169.46 0.67 M1.18 201.73 C46.21 150.65, 89.86 100.98, 174.44 1.21 M0.6 201.47 C67.27 125.09, 133.12 49.51, 174.45 -0.72 M-0.51 206.62 C65.05 132.29, 127.43 63.08, 180.33 -0.18 M0.79 207.47 C46.5 154.15, 91.91 103.54, 180.51 -0.35 M1.1 214.79 C64.11 138.22, 129.2 62.7, 186.44 0.6 M-0.44 214.09 C61.58 142.41, 122.86 71.75, 185.87 0.38 M0.53 219.25 C63.17 151.51, 123.88 80.33, 189.28 -1.09 M-0.08 219.34 C45.19 168.45, 89.05 118.06, 190.9 0.19 M1.33 224.61 C66.66 151.29, 128.32 77.76, 196.82 -0.61 M-0.2 224.91 C55.71 160.57, 111.48 96.32, 196.2 0.12 M0.08 230.57 C53.81 171.68, 104.7 112.35, 201.9 -1.18 M-0.21 231.49 C45.47 178.78, 91.64 126.04, 201.59 0.23 M-0.47 236.83 C56.18 175.07, 108.4 111.42, 206.73 0.51 M-0.03 237.87 C77.1 149.62, 153.65 61.22, 207.54 0.17 M1.4 242.87 C72.51 163.38, 144.04 80.71, 211.18 0.98 M-0.35 243.24 C63.46 171.25, 127.12 98.04, 212.63 0.66 M-0.4 249.44 C87.15 150.55, 174.13 50.69, 216.31 0.86 M0.23 250.19 C46.14 195.98, 92.16 141.79, 217.88 -0.52 M-1.07 254.71 C50.54 196.15, 105.32 134.24, 221.63 0.49 M-0.31 256.27 C52.86 194.18, 105.56 131.97, 222.68 0.11 M-0.65 262.28 C50.9 205.22, 100.34 146.61, 228.69 -0.95 M0.58 261.06 C48.39 208.84, 94.01 155.49, 227.75 -0.67 M6.47 262.57 C55.57 201.93, 105.49 145.84, 232.99 -1.19 M4.93 261.66 C71.29 187.59, 135.91 112.81, 233.77 -0.1 M12.37 260.25 C89.46 170, 168.08 82.61, 237.45 -0.48 M10.96 261.8 C60.7 204.33, 109.89 146.46, 238.5 0.51 M15.52 260.97 C71.16 198.44, 127.07 134.1, 244.9 -0.99 M16.76 262.16 C103.29 163.29, 190.8 63.49, 243.84 0.45 M20.54 261.82 C77.67 199.26, 132.52 135.77, 249.25 0.32 M21.48 261.54 C96.96 174.94, 173 87.43, 249.11 -0.14 M26.07 262.22 C85.03 196.3, 143.33 129.41, 255.52 -0.51 M27.03 262.09 C101.11 174.37, 177.26 87.39, 254.09 -0.52 M32.39 261.52 C102.79 180.79, 175.46 99.73, 259.94 -0.92 M32.72 261.87 C97.68 184.93, 163.72 109.53, 259.53 0.66 M37.19 261.96 C104.21 184.08, 171.17 107.54, 265.35 0.5 M37.02 261.3 C96.23 192.4, 156.28 122.94, 265.64 0.49 M43.12 261.02 C93.49 202.84, 142.31 145.92, 269.13 -0.86 M42.59 261.02 C92.44 204.33, 141.52 146.6, 269.97 -0.31 M48.37 262.3 C91.97 209.32, 138.47 155.7, 276 0.26 M47.64 261.8 C122.49 175.9, 197.77 89.24, 276.33 0.33 M54.24 262.54 C131.12 170.81, 209.53 82.93, 280.75 1.09 M53.53 261.03 C130.66 174.64, 206.1 85.91, 280.92 0.56 M58.25 262.59 C125.87 183.52, 193.45 104.66, 286.23 -1.18 M58.77 261.88 C111.57 202.39, 163.41 142.44, 286.52 0.29 M64.42 262.28 C140.13 174.6, 213.45 89.28, 291.32 -1.12 M64 261.86 C118.67 199.75, 171.72 139.31, 291.18 -0.16 M68.5 260.82 C136.56 184.9, 203.72 106.53, 295.87 -0.59 M69.9 262.02 C134.14 187.79, 196.97 115.02, 297.21 0.29 M76.06 262.25 C152.28 173.14, 230.67 84.68, 301.72 -0.53 M74.37 260.75 C162.11 160.66, 250.01 58.33, 302.46 -0.42 M79.91 262.7 C130.26 204.28, 180.89 147.53, 307.17 -0.73 M79.52 261.62 C157.38 170.34, 235.29 81.13, 308.03 -0.58 M86.05 261.07 C132.18 208.03, 178.22 152.52, 313.25 0.53 M84.96 260.69 C145.96 192.35, 206.65 122.92, 312.15 0.07 M91.08 262.05 C150.27 192.72, 208.91 124.41, 318.2 -1.19 M90.93 262.23 C159.04 183.45, 228.38 102.52, 317.89 -0.66 M94.37 261.31 C159.15 187.84, 223.63 112.47, 323.72 -0.36 M96.05 261.43 C141.56 205.84, 189.28 151.55, 323.14 0.52 M102.36 260.47 C170.98 177.67, 245.18 94.25, 329.44 0.3 M101.19 261.69 C190.76 157.5, 281.44 53.03, 328.28 -0.41 M105.34 262.5 C191.18 162.91, 277.37 62.41, 333.98 0.8 M105.89 262.26 C182.86 172.84, 261.46 82.73, 334.04 -0.33 M111.9 260.75 C173.03 189.87, 235.21 120.07, 339.84 -1.29 M112.22 261.36 C170.48 191.39, 230.64 121.91, 339.99 -0.4 M117.17 261.74 C171.2 199.66, 224.03 139.59, 344 0.1 M116.62 262.04 C181.3 188.09, 245.99 113.92, 345.03 0.45 M122.21 260.34 C190.85 179.24, 262.3 98, 350.07 -0.52 M122.27 261.47 C192 183.37, 260.22 104.46, 349.16 0.12 M128.48 262.5 C182.35 199.53, 233.82 138.39, 354.2 0.03 M127.04 262.01 C175.92 207.62, 224.78 151.1, 354.61 0.07 M133.62 260.51 C223.39 160.02, 313.71 56, 361.24 1.09 M133.16 261.82 C206.53 173.43, 282.26 87.86, 359.75 0.82 M139.02 260.91 C205.94 182.17, 276.44 101.74, 361.48 6.42 M137.86 262.01 C185.8 206.55, 233.61 152.35, 360.22 5.93 M142.91 262.5 C228.86 161.25, 316.76 63.28, 359.11 13.03 M144.38 261.11 C208.85 183.95, 275.32 106.96, 360.59 12.32 M148.2 262.97 C201.87 203.25, 250.46 144.8, 360.5 17.6 M148.45 262.42 C220.93 177.1, 293.32 92.74, 360.26 17.64 M155.38 260.62 C232.19 175.35, 309.49 86.81, 360.21 25.66 M154.99 261.59 C198.71 211.46, 241.85 159.86, 360.08 24.13 M159.35 261.74 C225 185.46, 292.93 107.05, 360.25 32 M158.75 262.15 C227.14 181.3, 295.8 102.81, 360.7 31.15 M164.37 259.94 C214.72 201.17, 267.2 142.35, 359.51 35.01 M165.67 261.71 C239.57 176.17, 312.31 92.42, 360.12 35.77 M170.13 260.33 C235.2 185.13, 302.99 109.13, 361.65 41.81 M170.13 262.02 C233.51 187.62, 297.36 113.3, 359.53 42.88 M174.93 261.62 C215.89 218.68, 254.71 172.82, 361.65 49.42 M175.25 260.65 C238.8 189.59, 301.86 117.11, 360.56 48.07 M179.08 262.99 C247.27 183.94, 316.14 104.15, 359.41 55.92 M180.2 261.32 C240.55 193.27, 300.46 126.06, 360.35 54.56 M185.46 260.51 C226.71 211.75, 271.78 163.28, 361.51 62.46 M185.89 260.93 C254.79 181.72, 323.24 103.46, 360.51 61.82 M190.71 260.8 C252.92 191.6, 313.46 118.17, 361.62 65.89 M191.01 261.49 C244.25 200.17, 297.37 140.22, 361.15 66.77 M197.96 262.06 C259.62 185.69, 324.15 111.29, 359.92 74.9 M196.31 261.62 C238.51 212, 281.12 163.85, 360.14 73.76 M201.59 260.87 C264.14 189.85, 327.25 118.57, 359.78 78.52 M202.33 262.39 C257.7 196.45, 314.56 131.11, 359.98 78.78 M206.13 262.93 C263.99 194.83, 321.3 129.01, 358.79 85.73 M206.43 262.65 C264.55 193.23, 322.86 126.24, 360.79 85.02 M210.9 260.04 C270.82 194.93, 326.71 129.24, 361.3 90.2 M212.11 261.11 C258.39 207.84, 304.62 153.78, 360.35 91.67 M215.92 262.1 C259.47 212.62, 303.13 164.95, 359.01 97.19 M217.74 262.76 C253.88 221.36, 288.62 180.67, 360.31 97.66 M222.77 262.53 C253.48 226.53, 283.55 192.68, 361.26 104.94 M222.4 261.31 C268 208.28, 313.86 157.04, 359.8 104.57 M227.13 260.71 C274.41 208.88, 322.27 154.9, 361.24 110.77 M228.33 261.47 C264.25 218.13, 299.83 176.63, 359.78 109.35 M234.27 261.07 C284.32 206.69, 332.6 148.7, 359.81 116.87 M233.58 262.46 C273.96 214.42, 315.64 167.49, 360.16 116.57 M237.03 260.86 C281.01 213.66, 322.44 166.92, 359.66 122.3 M238.05 262.37 C277.33 217.45, 315.24 171.82, 360.69 121.72 M243.41 259.57 C283.11 212.43, 326.12 166.29, 360.61 129.42 M245.2 261.62 C278.01 221.96, 310.7 182.1, 361 127.74 M249.46 261.2 C287.64 219.06, 324.58 172.51, 361.08 135.05 M249.3 262.05 C289.37 216.51, 328.75 171.23, 360.79 135.23 M255.93 261.56 C279 237.5, 299.86 211.99, 360.27 140.68 M254.42 260.59 C279.64 232.72, 302.3 206.33, 361.03 139.89 M260.66 261.69 C284.7 234.09, 309.92 205.69, 360.48 148.05 M259.91 262.08 C300.42 215.21, 339.6 170.4, 360.43 146.37 M267.28 263.31 C302.47 217.58, 342.27 174.55, 361.28 153.2 M265.39 261.04 C303.58 217.53, 342.62 174.74, 360.77 151.78 M269.65 262.25 C290.31 239.09, 309.85 216.47, 361.08 158.27 M270.15 262.45 C304.85 220.3, 339.49 180.62, 360.63 157.7 M276.56 259.89 C308.57 225.87, 338.77 186.62, 360.76 165.12 M276.19 261.5 C298.35 235.95, 318.53 211.63, 360.15 165.27 M280.12 260.63 C299.39 243.26, 315.97 223.9, 359.77 171.53 M281.67 262.43 C307.08 231.81, 333.46 202.46, 361.33 169.63 M288.53 263.25 C315.68 229.14, 345.27 195.87, 360.51 176.66 M287.84 262.28 C312.09 233.03, 335.2 204.78, 359.53 176.79 M290.41 262.45 C313.63 241.47, 329.42 216.73, 360.43 181.23 M292.57 261.66 C313.8 237.57, 333.04 214.58, 359.75 184.12 M295.6 260.17 C315.44 242.57, 330.26 219.77, 359.66 189.16 M297.27 260.54 C319.83 236.16, 341.41 210.68, 361.38 189.36 M303.5 263.16 C318.33 242.21, 336.09 226.27, 358.58 195.36 M302.37 261.07 C318.87 241.32, 335.55 223.02, 359.99 194.72 M307.84 262.28 C319.8 244.38, 333.29 232.54, 359.98 199.8 M308.32 261.28 C323.63 242.66, 340.18 224.53, 360.57 200.32 M313.04 262.05 C330.49 242.53, 344.46 222.57, 359.4 207.02 M313.01 261.95 C329.6 242.81, 346.18 224.26, 360.09 208.06 M318.33 260.78 C331.93 244.45, 348.89 226.54, 359.24 212.33 M318.12 261.07 C334.53 242.99, 351.66 225.35, 360.74 213.08 M325.35 260.27 C338.81 246.08, 352.38 226.53, 362.4 217.41 M323.85 260.91 C330.5 253.03, 339.18 244.59, 359.7 219.85 M327.76 261.5 C334.78 254.44, 342.04 247.81, 359.84 224.11 M328.67 262.04 C335.68 252.25, 344.64 243.88, 359.92 225.15 M333.38 262.81 C341.8 254.99, 346.62 246.45, 358.75 230.54 M334.65 260.87 C342.19 252.85, 348.78 243.68, 360.37 230.62 M338.51 263.34 C342.19 256.98, 346.48 250.12, 358.87 236.6 M339.93 261.43 C347.77 253, 354.4 244.82, 359.59 237.59 M346.74 260.48 C350.05 253.57, 357.55 246.81, 360.61 244.06 M344.64 262.11 C350.18 256.59, 353.62 251.73, 359.92 243.5 M351.03 261.41 C353.28 258.71, 357.24 254.64, 360.68 250.23 M349.56 261.59 C352.29 259.02, 354.95 256.3, 360.36 249.21 M355 260.96 C356.36 259.67, 358.08 258.75, 360.81 256.19 M355.6 261.39 C357.58 259.25, 359.33 257.39, 360.21 256.2" stroke="#82c91e" stroke-width="0.5" fill="none"></path><path d="M-0.79 0.61 C98.85 0.03, 197.66 -0.25, 359.77 0.26 M-0.53 -0.08 C120.98 2.07, 242.66 1.78, 359.93 0.4 M359.68 0.56 C359.7 79.2, 358.57 157.86, 360.02 261.06 M359.97 0.78 C361.89 89.26, 361.21 177.02, 360.16 261.54 M359.92 261.42 C257.74 261.93, 153.52 263.15, -0.41 260.36 M360.38 261.19 C241.92 261.09, 123.7 261.08, -0.02 261.53 M1.46 261.75 C-0.85 157.08, -0.18 55.84, 1.27 0.97 M-0.48 260.53 C-2.41 169.4, -1.54 79.01, 0.28 -0.78" stroke="#000000" stroke-width="1" fill="none"></path></g><g transform="translate(42.06324986049117 580.3823154994416) rotate(0 156.5 17)"><text x="0" y="27" font-family="Cascadia, Segoe UI Emoji" font-size="28px" fill="#000000" text-anchor="start" style="white-space: pre;" direction="ltr">application cluster</text></g><g stroke-linecap="round" transform="translate(51.74161638532371 660.3089686802441) rotate(0 96.17595127650668 47.35604422433016)"><path d="M0 0 C0 0, 0 0, 0 0 M0 0 C0 0, 0 0, 0 0 M-0.68 6.58 C2.01 3.78, 3.42 1.89, 5.38 -0.31 M-0.64 6.08 C0.99 4.87, 2.65 3.44, 5.36 0.08 M-0.95 11.19 C2.89 7.5, 8.04 5.79, 11.84 0.63 M-0.46 11.45 C2.39 10.15, 3.75 7.64, 10.39 -0.37 M-1.57 17.16 C3.64 10.38, 8.29 5.79, 14.18 -0.95 M0.8 17.94 C5.44 12.1, 11.69 3.83, 15.92 0.56 M0.32 23.5 C5.78 16.49, 14.75 9.48, 20.39 1.09 M1.1 23.58 C5.19 17.98, 10.93 11.7, 20.59 -0.86 M-0.13 28.69 C7.64 21.05, 18.17 11.17, 27.85 0.07 M0.29 30.06 C9.32 18.87, 17.77 9.98, 25.6 -0.48 M-0.64 38.13 C13.72 21.08, 22.95 9.61, 31.27 -1.95 M-0.36 36.45 C5.78 28.5, 12.89 21.7, 32.61 -0.54 M1.55 43.65 C8.9 31.59, 19.78 19.9, 35.22 -0.51 M-0.61 43.15 C11.31 29.12, 24.01 14.87, 37.11 1.09 M1.28 49.21 C12.51 35.94, 23.27 19.99, 43.06 -1.4 M-0.46 48.88 C11.17 37.09, 20.62 25.24, 43.39 0.62 M1.62 55.06 C12.55 40.65, 26.18 27.6, 49.16 0.88 M0.15 55.24 C14.91 37.38, 31.41 18.53, 48.03 1.17 M-1.82 59.2 C19.21 37.08, 38.45 14.62, 51.73 -1.52 M0.79 61.47 C11.51 47.55, 24.42 33.91, 52.85 0.54 M-0.75 65.55 C17.96 49.88, 32.24 30.41, 57.18 -0.32 M-1.12 66.97 C14.58 50.95, 28.02 32.56, 58.37 -0.03 M1.44 73.65 C18.67 52.82, 39.79 31.56, 64.87 0.29 M0.44 72.36 C18.4 50.93, 36.59 29.94, 62.81 -0.03 M-0.77 78.33 C17.59 57.72, 35.84 39.54, 67.46 1.14 M-0.19 79.5 C24.85 50.84, 49.48 21.7, 69.53 1.04 M-0.86 83.94 C21.19 59.45, 44.32 32.17, 75.73 -0.54 M0.99 85.02 C19.64 64.09, 39.92 40.1, 74.03 -0.5 M-1.96 91.72 C26.12 60.24, 50.12 33.25, 78.85 -1.62 M0.09 92.12 C17.31 71.68, 34.02 53.42, 79.37 0.24 M3.29 95.8 C28.1 63.29, 58.8 31.61, 85.23 -1.72 M2.65 95.77 C24.24 71.1, 46.3 45.53, 85.19 0.53 M7.03 94.58 C39.4 59.42, 71.81 23.22, 90.83 -1.66 M6.03 96.62 C33.54 64.18, 61.62 31.51, 89.15 0.78 M12.47 98.01 C36.54 67.77, 63.67 36.99, 95.95 -0.13 M10.96 95.44 C33.18 71.74, 54.29 46.21, 95.9 0.31 M18.01 95.17 C45.42 63.52, 76.63 29.13, 101.56 -0.18 M17.67 95.2 C46.65 60.88, 77.38 27.98, 100.56 0.18 M20.84 96.54 C42.76 71.82, 61.87 49.71, 106.1 -1.81 M22.8 96.55 C50.17 63.81, 78.16 30.93, 105.68 -1.1 M29.16 94.12 C56.62 64.79, 85.18 31.03, 109.83 -0.53 M27.65 96.39 C49.67 69.13, 72.81 42.66, 110.71 -0.71 M34.42 94.92 C60.76 59.99, 90.92 25.92, 114.92 0.81 M33.69 96.64 C54.2 70.84, 75.07 47.59, 116.32 0.95 M40.23 96.36 C61.87 71.03, 82.76 47.69, 121.11 1.76 M39.49 96.02 C70.88 59.3, 101.95 23.76, 121.13 -0.69 M42.55 95.75 C74.93 60.22, 103.53 30.61, 127.26 -0.11 M44.22 96.84 C65.09 71.26, 86.59 48.63, 127.49 -0.32 M50.63 97.67 C77.39 62.05, 105.86 28.47, 133.53 1.02 M48.61 96.76 C76.53 63.84, 103.85 32.19, 132.77 0.74 M55.22 95.48 C82.72 67.52, 108.74 35.8, 135.66 -1.33 M54.41 95.6 C74.28 73.5, 93.04 52.01, 137.83 0.39 M61.45 94.68 C89.58 63.3, 113.32 32.44, 143.84 -0.56 M59.36 95.1 C83.88 67.62, 107.31 40.53, 143 0.43 M65.08 94.42 C88.64 71.38, 108.79 47.11, 148.97 -1.5 M64.69 95.7 C83.45 73.79, 102.82 52.04, 148.55 0.45 M69.4 94.86 C94.4 70.58, 113.43 43.63, 153.49 1.01 M70.03 96.34 C101.71 60.39, 131.73 25.37, 154.63 0.54 M77.44 94.7 C103.89 65.69, 131.68 33.16, 157.7 1.56 M74.92 95.23 C100 68.21, 125.25 39.2, 159.78 1.09 M80.86 94.52 C114.74 57.64, 148.22 19.41, 162.56 1.6 M81.79 95.63 C98.84 74.86, 115.93 53.35, 164.87 -0.43 M84.25 94.31 C103.37 74, 125.76 49.9, 168.01 0.89 M85.39 96.64 C106.19 73.24, 124.8 49.48, 169.58 0.32 M89.89 96.81 C110.77 76.28, 128.86 52.8, 175.78 -1.09 M91.77 94.96 C110.26 76.6, 126.65 56.41, 174.36 -0.66 M98.13 97.06 C115.93 72.95, 133.67 54.57, 179.72 -1.64 M95.79 95.69 C121.1 69.18, 145.23 40.74, 180.92 0.02 M104.16 93.74 C131.11 60.39, 161.16 30.46, 184.57 -1.51 M102.02 96.11 C120.98 74.79, 138.05 53.2, 186.16 0 M106.36 94.65 C126.76 73.3, 147.76 49.11, 192.32 -1.32 M108.25 96.46 C138.92 60.42, 171.75 23.99, 190.7 0.88 M111.05 96.14 C133.78 74.47, 154.38 50.17, 195.01 2 M112.48 95.72 C139.33 64.4, 166.66 32.89, 194.8 1.31 M116.87 96.57 C137.57 73.96, 157.57 51.21, 196.37 6.97 M118.32 96.38 C142.5 65.83, 168.54 36.81, 194.18 6.97 M122.89 96.46 C144.28 70.97, 168.94 46.45, 195.24 12.21 M123.39 96.99 C143.01 71.94, 163.7 49.01, 194.61 14.61 M128.24 96.2 C147 72.82, 165.67 52.09, 194.62 21.37 M127.97 95.19 C145.41 75.96, 162.84 55.33, 195.07 21.36 M133.66 95.73 C148.09 79.2, 160.19 64.11, 193.17 24.39 M132.86 95.72 C147.45 81.38, 159.35 65.74, 194.45 25.24 M139.72 96.72 C148.62 83.28, 160.57 69.32, 194.79 33.1 M138.59 95.96 C157.25 75.04, 175.37 54.1, 195.28 33.2 M145.04 98.06 C159.95 74.67, 177.49 58.04, 194.82 39.46 M143.96 95.75 C161.97 77.68, 177.77 56.54, 195.07 38.65 M149.2 97.2 C162.38 81.63, 175.59 64.74, 194.31 42.99 M149.98 96.1 C160.54 84.24, 170.58 72.2, 194.75 45.24 M154.99 97.68 C168.06 80.53, 179.4 66, 194.2 48.94 M154.34 97.04 C164.51 85.4, 174.26 75.09, 193.99 50.39 M159.24 94.51 C170.84 84.95, 179.41 73.4, 192.93 55.98 M161.39 96.35 C170.81 84.32, 179.25 73.86, 194.98 57.32 M167.15 97.65 C175.82 84.97, 186.76 74.99, 193.98 61.93 M164.58 95.36 C176.53 83.92, 187.47 69.49, 195.12 62.09 M171.06 97.39 C176 89.65, 181.94 85.1, 194.08 67.87 M170.46 95.75 C179.43 85.58, 187.74 76.65, 195.39 68.1 M176.81 95.87 C181.06 93.54, 183.05 87.37, 195.49 75.64 M175.15 95.3 C180.74 90.23, 186.34 84.4, 193.81 74.93 M182.48 96.39 C186.78 92.05, 188.96 88.32, 194.18 80.08 M182.26 96.64 C185.94 92.08, 189.41 86.4, 193.72 80.85 M185.65 95.5 C188.76 94.01, 190.41 91.01, 195.08 86.64 M187.2 95.61 C188.22 93.8, 190.21 92.06, 194.55 87.44" stroke="#e64980" stroke-width="0.5" fill="none"></path><path d="M-1.75 0.64 C40.49 -0.66, 81.11 0.91, 192.75 1.53 M-0.41 -0.53 C41.52 -1.76, 81.87 -0.76, 192.66 0.57 M193.55 1.12 C193.19 29.16, 193.43 60.95, 193.1 96.55 M193.13 -0.81 C192.04 35.41, 193.85 70.3, 192.06 94.74 M193.54 94.51 C115.18 95.57, 40.41 95.16, 1.29 93.53 M193.15 95.63 C123.92 92.63, 55.82 93.27, 0.37 94.01 M0.25 92.8 C-1.82 64.1, -0.48 38.12, -0.64 0.72 M-0.58 93.99 C0.2 59.89, 0.72 27.73, -0.49 0.2" stroke="#000000" stroke-width="1" fill="none"></path></g><g transform="translate(61.73843383789085 665.9514770507785) rotate(0 60.5 16)"><text x="0" y="26" font-family="Helvetica, Segoe UI Emoji" font-size="28px" fill="#000000" text-anchor="start" style="white-space: pre;" direction="ltr">Hello App</text></g></svg>